<svg width="40" height="40" viewBox="0 0 40 40" fill="none" xmlns="http://www.w3.org/2000/svg">
<g clip-path="url(#clip0_262_1205)">
<path d="M19.1541 -0.0158731C19.2427 -0.0167004 19.2427 -0.0167004 19.3331 -0.0175444C21.1905 -0.0309475 22.8333 0.128444 24.6094 0.703121C24.6934 0.730142 24.6934 0.730142 24.779 0.757709C28.01 1.82259 30.8819 4.32854 32.4404 7.34645C32.5691 7.60386 32.6916 7.86388 32.8126 8.125C32.8542 8.21312 32.8959 8.30124 32.9389 8.39202C34.1182 10.9981 34.5326 14.3106 33.8282 17.1094C33.8049 17.205 33.8049 17.205 33.7811 17.3025C33.2198 19.5539 32.2435 21.6067 30.7032 23.3496C29.4618 24.7583 28.8103 26.3995 28.3594 28.2031C27.1477 28.2031 25.936 28.2031 24.6876 28.2031C24.6889 27.8922 24.6902 27.5813 24.6915 27.261C24.6954 26.2282 24.6954 25.1955 24.6934 24.1627C24.6923 23.5372 24.6925 22.9117 24.6958 22.2861C24.6987 21.7401 24.6991 21.1941 24.6966 20.6481C24.6954 20.3597 24.6953 20.0714 24.6982 19.7829C24.7107 18.4748 24.6351 17.3709 24.0043 16.1985C23.9074 16.0177 23.8174 15.8349 23.7291 15.6497C23.5547 15.2855 23.3733 14.9251 23.191 14.5648C23.1256 14.4346 23.0602 14.3044 22.9949 14.1742C22.8258 13.8373 22.6562 13.5007 22.4864 13.1642C22.2124 12.621 21.9393 12.0774 21.6663 11.5338C21.5713 11.3451 21.4762 11.1565 21.381 10.9679C21.3233 10.8532 21.2655 10.7384 21.2078 10.6237C21.1814 10.5716 21.155 10.5195 21.1279 10.4659C21.0245 10.2601 20.9324 10.0626 20.8594 9.84375C20.5303 9.65862 20.1403 9.60146 19.7657 9.60937C19.5025 9.7115 19.5025 9.7115 19.2969 9.84375C19.2454 9.84375 19.1938 9.84375 19.1407 9.84375C19.1211 9.89563 19.1015 9.94751 19.0814 10.001C18.9617 10.289 18.8238 10.5653 18.6835 10.8438C18.654 10.9027 18.6245 10.9616 18.5941 11.0223C18.4997 11.2106 18.4052 11.3988 18.3106 11.5869C18.2488 11.71 18.1871 11.8332 18.1254 11.9563C18.0027 12.201 17.8799 12.4457 17.7571 12.6903C17.5882 13.0266 17.42 13.3633 17.2519 13.6999C17.0657 14.0729 16.8782 14.4451 16.6892 14.8166C16.6479 14.8982 16.6065 14.9798 16.5639 15.0639C16.4817 15.2263 16.3991 15.3884 16.3161 15.5504C16.21 15.7608 16.1083 15.9727 16.0075 16.1857C15.9411 16.3209 15.8685 16.4529 15.7956 16.5847C15.251 17.6381 15.3123 18.766 15.3195 19.9206C15.3207 20.2127 15.3188 20.5047 15.3173 20.7968C15.3148 21.3476 15.3152 21.8984 15.3165 22.4493C15.3179 23.0773 15.3162 23.7054 15.3142 24.3334C15.3102 25.6233 15.3105 26.9132 15.3126 28.2031C14.1008 28.2031 12.8891 28.2031 11.6407 28.2031C11.486 27.6359 11.3313 27.0687 11.1719 26.4844C10.6929 25.2553 10.0669 24.2889 9.2188 23.2812C8.66553 22.6094 8.16725 21.9295 7.73443 21.1719C7.68317 21.084 7.63191 20.996 7.57909 20.9055C6.40522 18.8395 5.90224 16.5302 5.91314 14.1699C5.91331 14.1043 5.91347 14.0387 5.91365 13.9712C5.91766 12.9964 5.94273 12.0457 6.17193 11.0937C6.18745 11.0288 6.20297 10.9639 6.21896 10.8969C7.04395 7.56423 8.89279 4.71736 11.6407 2.65625C11.7423 2.57996 11.7423 2.57996 11.8461 2.50213C13.9321 0.993447 16.5641 0.000304898 19.1541 -0.0158731Z" fill="url(#paint0_linear_262_1205)"/>
<path d="M11.7968 30.5469C17.2109 30.5469 22.625 30.5469 28.2031 30.5469C28.2031 33.228 28.2031 33.228 27.142 34.3494C26.5681 34.8911 25.8103 35.2421 25.0227 35.2464C24.9318 35.2471 24.8408 35.2477 24.747 35.2484C24.6475 35.2488 24.5479 35.2491 24.4453 35.2494C24.3392 35.2501 24.233 35.2507 24.1269 35.2514C23.7784 35.2534 23.4298 35.2546 23.0813 35.2557C22.961 35.2562 22.8407 35.2566 22.7204 35.257C22.2194 35.2587 21.7184 35.2602 21.2175 35.261C20.5016 35.2623 19.7857 35.2649 19.0698 35.2693C18.5654 35.2724 18.061 35.2739 17.5566 35.2743C17.2559 35.2746 16.9553 35.2755 16.6546 35.2781C16.3711 35.2804 16.0877 35.2809 15.8041 35.28C15.6522 35.28 15.5002 35.2819 15.3482 35.2838C14.2729 35.2763 13.4549 34.9048 12.6819 34.1733C11.6765 33.1083 11.7968 31.9942 11.7968 30.5469Z" fill="url(#paint1_linear_262_1205)"/>
<path d="M17.6562 19.4531C18.1461 19.5563 18.6359 19.6594 19.1406 19.7656C19.4384 19.792 19.7055 19.8104 20 19.8047C20.0628 19.8059 20.1257 19.8071 20.1904 19.8083C20.9451 19.8037 21.5761 19.6147 22.3438 19.4531C22.3438 22.3406 22.3438 25.2281 22.3438 28.2031C20.7969 28.2031 19.25 28.2031 17.6562 28.2031C17.6562 25.3156 17.6562 22.4281 17.6562 19.4531Z" fill="url(#paint2_linear_262_1205)"/>
<path d="M14.2969 37.5781C18.0609 37.5781 21.825 37.5781 25.7031 37.5781C25.2253 38.6533 24.6467 39.3853 23.5532 39.8508C23.1858 39.9856 22.8558 40.0123 22.4656 40.0138C22.4075 40.0143 22.3494 40.0149 22.2896 40.0154C22.0976 40.0169 21.9056 40.0178 21.7136 40.0186C21.6477 40.0189 21.5818 40.0193 21.514 40.0196C21.165 40.0212 20.816 40.0223 20.467 40.0231C20.1083 40.0239 19.7497 40.0266 19.3911 40.0297C19.1138 40.0318 18.8365 40.0324 18.5592 40.0327C18.4271 40.0331 18.2951 40.034 18.163 40.0354C16.9432 40.048 16.0208 39.8096 15.1025 38.9697C14.7305 38.5821 14.4661 38.0858 14.2969 37.5781Z" fill="url(#paint3_linear_262_1205)"/>
<path d="M37.2512 20.3736C37.7593 20.6854 38.162 21.0962 38.5791 21.5186C38.6532 21.5919 38.7274 21.6652 38.8017 21.7384C38.8721 21.8092 38.9426 21.8799 39.0152 21.9528C39.0787 22.0166 39.1422 22.0804 39.2077 22.1461C39.5258 22.5219 39.6558 22.8559 39.6362 23.3405C39.583 23.6872 39.4425 23.9349 39.179 24.1656C38.8188 24.4053 38.4686 24.4478 38.0468 24.375C37.4585 24.1217 37.0183 23.6157 36.5771 23.1689C36.5029 23.0956 36.4287 23.0223 36.3545 22.9491C36.284 22.8783 36.2136 22.8076 36.141 22.7347C36.0457 22.639 36.0457 22.639 35.9485 22.5414C35.6304 22.1656 35.5004 21.8316 35.52 21.347C35.5731 21.0003 35.7136 20.7526 35.9771 20.5218C36.362 20.2658 36.8177 20.1869 37.2512 20.3736Z" fill="url(#paint4_linear_262_1205)"/>
<path d="M3.74941 20.3638C4.05509 20.5159 4.25055 20.7102 4.40126 21.0168C4.51382 21.3532 4.53449 21.6861 4.39207 22.0168C4.0802 22.5249 3.66944 22.9276 3.24709 23.3447C3.17376 23.4189 3.10046 23.4931 3.02721 23.5673C2.95646 23.6378 2.88571 23.7082 2.81282 23.7808C2.71713 23.8761 2.71713 23.8761 2.61951 23.9733C2.24375 24.2914 1.9097 24.4214 1.42519 24.4018C1.07841 24.3487 0.830717 24.2082 0.599993 23.9447C0.360388 23.5844 0.317848 23.2343 0.390642 22.8125C0.643971 22.2242 1.1499 21.784 1.5967 21.3428C1.67003 21.2686 1.74332 21.1944 1.81658 21.1201C1.88732 21.0497 1.95807 20.9792 2.03096 20.9067C2.09475 20.8431 2.15855 20.7796 2.22427 20.7142C2.68363 20.3253 3.16957 20.1728 3.74941 20.3638Z" fill="url(#paint5_linear_262_1205)"/>
<path d="M38.9057 6.30126C39.2113 6.45345 39.4068 6.64767 39.5575 6.95434C39.6701 7.29068 39.6907 7.62359 39.5483 7.95432C39.2365 8.46243 38.8257 8.86512 38.4033 9.28222C38.33 9.35639 38.2567 9.4306 38.1835 9.50484C38.1127 9.57529 38.042 9.64573 37.9691 9.71831C37.8734 9.81361 37.8734 9.81361 37.7758 9.91082C37.4 10.2289 37.066 10.3589 36.5814 10.3393C36.2347 10.2862 35.987 10.1457 35.7562 9.88219C35.5166 9.52195 35.4741 9.17178 35.5469 8.74999C35.8002 8.16169 36.3061 7.72151 36.7529 7.28027C36.8263 7.2061 36.8996 7.13189 36.9728 7.05764C37.0436 6.98719 37.1143 6.91675 37.1872 6.84417C37.251 6.78064 37.3148 6.71711 37.3805 6.65166C37.8399 6.2628 38.3258 6.11026 38.9057 6.30126Z" fill="url(#paint6_linear_262_1205)"/>
<path d="M2.09491 6.31107C2.60303 6.62294 3.00571 7.0337 3.42281 7.45605C3.49698 7.52939 3.57119 7.60268 3.64544 7.67593C3.71588 7.74668 3.78633 7.81743 3.85891 7.89032C3.92243 7.95411 3.98596 8.0179 4.05141 8.08363C4.36951 8.45939 4.49951 8.79344 4.47994 9.27795C4.42677 9.62474 4.28627 9.87242 4.02278 10.1031C3.66254 10.3428 3.31237 10.3853 2.89058 10.3125C2.30228 10.0592 1.8621 9.55324 1.42086 9.10644C1.34669 9.03311 1.27248 8.95982 1.19823 8.88657C1.12779 8.81582 1.05734 8.74507 0.98476 8.67218C0.889468 8.57649 0.889468 8.57649 0.792251 8.47887C0.474156 8.10311 0.344151 7.76906 0.363727 7.28454C0.416893 6.93776 0.557391 6.69007 0.820881 6.45935C1.20578 6.20334 1.66147 6.12443 2.09491 6.31107Z" fill="url(#paint7_linear_262_1205)"/>
<path d="M36.7551 14.1068C36.8263 14.1063 36.8974 14.1059 36.9708 14.1055C37.1209 14.105 37.2711 14.1051 37.4213 14.1058C37.6504 14.1064 37.8793 14.1042 38.1084 14.1017C38.2546 14.1016 38.4009 14.1016 38.5471 14.1019C38.6152 14.101 38.6834 14.1001 38.7536 14.0992C39.181 14.1041 39.4269 14.168 39.7657 14.4531C40.0826 14.8611 40.0605 15.2854 40 15.7813C39.8303 16.1396 39.6534 16.3181 39.2969 16.4844C39.0504 16.5192 38.8062 16.5191 38.5575 16.5183C38.4863 16.5187 38.4151 16.5191 38.3418 16.5195C38.1916 16.52 38.0415 16.5199 37.8913 16.5192C37.6622 16.5186 37.4333 16.5208 37.2042 16.5233C37.0579 16.5234 36.9117 16.5234 36.7655 16.5231C36.6974 16.524 36.6292 16.5249 36.559 16.5258C36.1316 16.5209 35.8857 16.457 35.5469 16.1719C35.23 15.7639 35.2521 15.3396 35.3125 14.8438C35.628 14.1778 36.0811 14.1045 36.7551 14.1068Z" fill="url(#paint8_linear_262_1205)"/>
<path d="M1.44261 14.1068C1.51378 14.1063 1.58494 14.1059 1.65827 14.1055C1.80844 14.105 1.95862 14.1051 2.10879 14.1058C2.33789 14.1064 2.56683 14.1042 2.79591 14.1017C2.94214 14.1016 3.08837 14.1016 3.2346 14.1019C3.30273 14.101 3.37086 14.1001 3.44105 14.0992C3.8685 14.1041 4.11442 14.168 4.45317 14.4531C4.77007 14.8611 4.74801 15.2854 4.68754 15.7813C4.51779 16.1396 4.3409 16.3181 3.98442 16.4844C3.73787 16.5192 3.49367 16.5191 3.24498 16.5183C3.17381 16.5187 3.10265 16.5191 3.02932 16.5195C2.87915 16.52 2.72897 16.5199 2.5788 16.5192C2.3497 16.5186 2.12076 16.5208 1.89168 16.5233C1.74545 16.5234 1.59922 16.5234 1.45299 16.5231C1.38486 16.524 1.31673 16.5249 1.24654 16.5258C0.819091 16.5209 0.573174 16.457 0.23442 16.1719C-0.082479 15.7639 -0.0604221 15.3396 4.47668e-05 14.8438C0.315507 14.1778 0.768636 14.1045 1.44261 14.1068Z" fill="url(#paint9_linear_262_1205)"/>
<path d="M19.9219 13.2031C19.9734 13.2031 20.025 13.2031 20.0781 13.2031C20.3458 13.7326 20.6128 14.2624 20.8792 14.7924C20.97 14.9728 21.0609 15.1531 21.152 15.3333C21.2828 15.5919 21.4129 15.8509 21.543 16.1099C21.584 16.1907 21.625 16.2716 21.6673 16.3548C21.7048 16.4299 21.7423 16.5049 21.781 16.5823C21.8143 16.6484 21.8476 16.7145 21.8819 16.7826C21.9531 16.9531 21.9531 16.9531 21.9531 17.1875C20.8133 17.6862 19.3635 17.691 18.2031 17.2559C18.1258 17.222 18.1258 17.222 18.0469 17.1875C18.0932 16.9048 18.1701 16.678 18.2988 16.4226C18.3348 16.3507 18.3708 16.2788 18.4078 16.2047C18.4467 16.1281 18.4856 16.0515 18.5257 15.9726C18.5655 15.8934 18.6052 15.8142 18.6462 15.7326C18.7731 15.48 18.9007 15.2278 19.0283 14.9756C19.1146 14.8043 19.2008 14.6329 19.287 14.4615C19.4981 14.0418 19.7098 13.6224 19.9219 13.2031Z" fill="url(#paint10_linear_262_1205)"/>
</g>
<defs>
<linearGradient id="paint0_linear_262_1205" x1="5.91296" y1="14.0924" x2="34.1728" y2="14.0924" gradientUnits="userSpaceOnUse">
<stop stop-color="#E58FFF"/>
<stop offset="1" stop-color="white"/>
</linearGradient>
<linearGradient id="paint1_linear_262_1205" x1="11.7924" y1="32.9154" x2="28.2031" y2="32.9154" gradientUnits="userSpaceOnUse">
<stop stop-color="#E58FFF"/>
<stop offset="1" stop-color="white"/>
</linearGradient>
<linearGradient id="paint2_linear_262_1205" x1="17.6562" y1="23.8281" x2="22.3438" y2="23.8281" gradientUnits="userSpaceOnUse">
<stop stop-color="#E58FFF"/>
<stop offset="1" stop-color="white"/>
</linearGradient>
<linearGradient id="paint3_linear_262_1205" x1="14.2969" y1="38.807" x2="25.7031" y2="38.807" gradientUnits="userSpaceOnUse">
<stop stop-color="#E58FFF"/>
<stop offset="1" stop-color="white"/>
</linearGradient>
<linearGradient id="paint4_linear_262_1205" x1="35.5181" y1="22.3391" x2="39.6381" y2="22.3391" gradientUnits="userSpaceOnUse">
<stop stop-color="#E58FFF"/>
<stop offset="1" stop-color="white"/>
</linearGradient>
<linearGradient id="paint5_linear_262_1205" x1="0.358398" y1="22.3427" x2="4.49233" y2="22.3427" gradientUnits="userSpaceOnUse">
<stop stop-color="#E58FFF"/>
<stop offset="1" stop-color="white"/>
</linearGradient>
<linearGradient id="paint6_linear_262_1205" x1="35.5146" y1="8.2802" x2="39.6486" y2="8.2802" gradientUnits="userSpaceOnUse">
<stop stop-color="#E58FFF"/>
<stop offset="1" stop-color="white"/>
</linearGradient>
<linearGradient id="paint7_linear_262_1205" x1="0.361816" y1="8.2766" x2="4.48185" y2="8.2766" gradientUnits="userSpaceOnUse">
<stop stop-color="#E58FFF"/>
<stop offset="1" stop-color="white"/>
</linearGradient>
<linearGradient id="paint8_linear_262_1205" x1="35.276" y1="15.3125" x2="40.0366" y2="15.3125" gradientUnits="userSpaceOnUse">
<stop stop-color="#E58FFF"/>
<stop offset="1" stop-color="white"/>
</linearGradient>
<linearGradient id="paint9_linear_262_1205" x1="-0.036499" y1="15.3125" x2="4.72409" y2="15.3125" gradientUnits="userSpaceOnUse">
<stop stop-color="#E58FFF"/>
<stop offset="1" stop-color="white"/>
</linearGradient>
<linearGradient id="paint10_linear_262_1205" x1="18.0469" y1="15.3878" x2="21.9531" y2="15.3878" gradientUnits="userSpaceOnUse">
<stop stop-color="#E58FFF"/>
<stop offset="1" stop-color="white"/>
</linearGradient>
<clipPath id="clip0_262_1205">
<rect width="40" height="40" fill="white"/>
</clipPath>
</defs>
</svg>
