<svg width="42" height="42" viewBox="0 0 42 42" fill="none" xmlns="http://www.w3.org/2000/svg">
<path d="M27.4721 13.3487C29.6525 15.2245 31.1114 17.7857 31.418 20.6719C31.5258 23.2556 31.1508 25.4006 29.8529 27.6556C29.7721 27.8193 29.7186 27.9553 29.6954 28.1367C29.8257 28.3007 29.9481 28.4317 30.1004 28.5725C30.1773 28.6466 30.2541 28.7208 30.3333 28.7971C30.5195 28.97 30.7103 29.1364 30.9031 29.3018C31.3272 29.6707 31.7199 30.0703 32.1153 30.4695C32.1906 30.5451 32.2659 30.6208 32.3434 30.6987C32.5273 30.8836 32.711 31.0687 32.8946 31.2539C32.9722 31.214 33.0498 31.1742 33.1298 31.1331C33.3533 31.0241 33.4733 30.9724 33.7149 30.9719C33.7656 30.9703 33.8164 30.9687 33.8687 30.9671C34.3031 31.0685 34.6338 31.415 34.937 31.7246C35.0468 31.8357 35.0468 31.8357 35.1588 31.9491C35.2338 32.0259 35.3089 32.1027 35.3863 32.1819C35.9643 32.7771 35.9643 32.7771 36.5764 33.3364C37.1063 33.7896 37.5856 34.2999 38.0752 34.7956C38.5306 35.2561 38.9845 35.7129 39.4778 36.1334C39.7122 36.3368 39.9307 36.5554 40.1492 36.7756C40.1925 36.8186 40.2358 36.8616 40.2804 36.9059C40.5953 37.2215 40.7039 37.3833 40.7286 37.8267C40.721 38.2746 40.6236 38.4715 40.3097 38.7822C40.2449 38.8425 40.1801 38.9027 40.1133 38.9648C39.9817 39.095 39.8511 39.2261 39.7205 39.3573C39.627 39.4511 39.5331 39.5445 39.4389 39.6377C39.1409 39.9329 38.8614 40.2377 38.5897 40.5574C38.3579 40.8151 38.0927 41.074 37.7383 41.1172C37.6761 41.1192 37.6139 41.1212 37.5498 41.1233C37.4885 41.1264 37.4272 41.1294 37.364 41.1326C36.7346 41.0247 36.2801 40.3971 35.858 39.9646C35.3025 39.3929 35.3025 39.3929 34.714 38.8562C34.1657 38.3867 33.6701 37.858 33.163 37.3449C32.4616 36.6354 32.4616 36.6354 31.7211 35.9673C31.5045 35.7809 31.3029 35.5824 31.1001 35.3811C31.0242 35.3063 30.9483 35.2316 30.8701 35.1546C30.5454 34.7977 30.4803 34.5428 30.4881 34.0699C30.5326 33.7615 30.6698 33.5603 30.8438 33.3047C30.7073 33.166 30.5706 33.0276 30.4336 32.8894C30.3961 32.8512 30.3586 32.8129 30.3199 32.7736C30.0988 32.551 29.8719 32.3401 29.6338 32.1357C29.2244 31.7812 28.8457 31.3976 28.4649 31.0129C28.3935 30.9412 28.3221 30.8694 28.2486 30.7955C28.0744 30.6204 27.9004 30.445 27.7266 30.2695C27.4734 30.3906 27.257 30.5334 27.0324 30.7022C25.8393 31.5936 24.5654 32.1674 23.1329 32.5664C23.0763 32.5823 23.0198 32.5982 22.9615 32.6145C20.2617 33.3279 17.2349 32.7128 14.8429 31.3677C14.3435 31.0735 13.8955 30.7247 13.4532 30.3516C13.3808 30.2908 13.3085 30.23 13.234 30.1673C11.6061 28.7492 10.4536 26.9245 9.8643 24.8503C9.848 24.7933 9.8317 24.7363 9.8149 24.6775C9.56636 23.7541 9.48564 22.8358 9.49004 21.8818C9.49044 21.7775 9.49084 21.6733 9.49126 21.5658C9.52827 18.5875 10.82 15.8705 12.9371 13.803C16.8627 10.0926 23.3281 9.89995 27.4721 13.3487ZM15.0938 15.4219C15.0302 15.4721 14.9667 15.5223 14.9012 15.5741C13.2497 16.9401 12.326 19.0057 12.0843 21.1025C12.0742 21.2323 12.0656 21.3622 12.0586 21.4922C12.0553 21.5547 12.0519 21.6172 12.0484 21.6816C11.9875 23.9984 12.943 26.1005 14.4915 27.7801C16.0547 29.4136 18.2359 30.2323 20.4668 30.3003C22.4594 30.2396 24.3172 29.6044 25.8399 28.3008C25.9072 28.2443 25.9746 28.1878 26.044 28.1297C27.675 26.7189 28.6994 24.6602 28.8648 22.507C28.8682 22.4428 28.8716 22.3786 28.875 22.3125C28.8784 22.2508 28.8818 22.1892 28.8853 22.1257C28.9407 20.0431 28.2238 18.0843 26.9063 16.4883C26.8561 16.4246 26.8058 16.361 26.7541 16.2954C25.3675 14.622 23.2859 13.7074 21.162 13.4905C18.9733 13.2933 16.773 14.0171 15.0938 15.4219Z" fill="url(#paint0_linear_262_1169)"/>
<path d="M25.7799 16.9949C27.0717 18.3479 27.6831 20.223 27.6423 22.0706C27.5829 23.5424 27.1518 24.9112 26.25 26.0859C25.9807 25.9513 25.9113 25.6569 25.7885 25.3938C25.1101 23.9951 24.0894 23.16 22.7226 22.4766C22.8359 22.2359 22.9684 22.0265 23.1225 21.8101C23.6741 20.9745 23.8319 20.1873 23.707 19.1953C23.5139 18.3322 23.0609 17.6725 22.3458 17.1545C21.5763 16.6736 20.7594 16.4715 19.8515 16.6165C19.0454 16.8122 18.3011 17.2119 17.8007 17.8828C17.2472 18.8252 17.0273 19.7964 17.298 20.8744C17.4916 21.3672 17.7554 21.7687 18.0997 22.1696C18.2109 22.3125 18.2109 22.3125 18.2109 22.4766C18.1434 22.5104 18.076 22.5442 18.0065 22.5791C16.4156 23.4021 15.5472 24.501 14.7656 26.0859C13.6458 25.0564 13.3812 23.389 13.2736 21.9414C13.2143 19.9464 14.1176 18.1052 15.4475 16.6729C18.4619 13.8341 22.9056 14.2394 25.7799 16.9949Z" fill="url(#paint1_linear_262_1169)"/>
<path d="M23.449 24.2107C24.3389 24.9808 25.0129 25.9287 25.2178 27.1027C25.1745 27.3728 25.0581 27.4578 24.842 27.615C24.7923 27.6484 24.7426 27.6819 24.6914 27.7163C24.6144 27.7694 24.6144 27.7694 24.5358 27.8235C23.6547 28.4099 22.6984 28.7761 21.6562 28.957C21.5987 28.9677 21.5412 28.9784 21.4819 28.9894C19.704 29.2672 17.8984 28.7683 16.4062 27.8086C16.3369 27.7689 16.2677 27.7293 16.1963 27.6884C16.0165 27.5759 15.8817 27.4827 15.75 27.3164C15.6497 26.8033 15.9273 26.283 16.1601 25.8398C16.1938 25.7738 16.2276 25.7079 16.2623 25.6399C16.8712 24.5359 17.8698 23.7631 19.0671 23.384C20.6025 22.9952 22.1681 23.2505 23.449 24.2107Z" fill="url(#paint2_linear_262_1169)"/>
<path d="M6.92139 22.5381C7.05098 22.5387 7.05098 22.5387 7.18318 22.5394C7.56278 22.5432 7.91368 22.557 8.28516 22.6406C8.29295 22.693 8.30074 22.7453 8.30877 22.7992C8.54639 24.3698 8.87744 25.7508 9.55055 27.1905C9.67969 27.4805 9.67969 27.4805 9.67969 27.6445C6.91852 27.6445 4.15734 27.6445 1.3125 27.6445C1.3125 26.2291 1.99293 25.0456 2.95312 24.0352C4.08775 23.0245 5.40975 22.5078 6.92139 22.5381Z" fill="url(#paint3_linear_262_1169)"/>
<path d="M37.2422 23.4609C38.4018 24.3021 39.368 25.5409 39.6211 26.9883C39.6211 27.2048 39.6211 27.4214 39.6211 27.6445C36.8599 27.6445 34.0988 27.6445 31.2539 27.6445C31.352 27.3501 31.4459 27.0744 31.566 26.7915C32.1349 25.4291 32.4393 24.0985 32.6484 22.6406C34.2277 22.2902 35.8986 22.5586 37.2422 23.4609Z" fill="url(#paint4_linear_262_1169)"/>
<path d="M34.7456 12.1036C35.4599 12.826 36.2385 14.0423 36.2614 15.0936C36.2602 15.2577 36.259 15.4218 36.2578 15.5859C35.5797 15.6165 34.9018 15.6398 34.2232 15.6539C33.9079 15.6608 33.5931 15.67 33.2781 15.685C31.2484 15.779 31.2484 15.779 30.719 15.4622C30.4007 15.1685 30.207 14.8323 30.0278 14.442C29.8832 14.1598 29.6782 13.9308 29.4697 13.6941C29.4322 13.6503 29.3946 13.6065 29.3559 13.5614C28.8596 12.989 28.2776 12.5445 27.6766 12.0893C27.4919 11.9493 27.3165 11.8126 27.1523 11.6484C29.3945 9.77888 32.6912 10.1485 34.7456 12.1036Z" fill="url(#paint5_linear_262_1169)"/>
<path d="M13.5352 11.4023C13.688 11.5843 13.688 11.5843 13.7813 11.7305C13.7256 11.7693 13.67 11.8081 13.6127 11.8481C12.7473 12.4629 11.9872 13.1643 11.2639 13.9402C11.1935 14.0141 11.1231 14.0881 11.0506 14.1643C10.8789 14.3586 10.8073 14.4865 10.7017 14.7348C10.5424 15.1056 10.3654 15.3826 10.0078 15.5859C9.18914 15.7751 8.31319 15.6993 7.47976 15.6648C7.16363 15.653 6.84739 15.6478 6.5311 15.642C5.91237 15.6298 5.29417 15.6102 4.67578 15.5859C4.65769 14.2412 5.30804 13.0346 6.21868 12.0634C8.20827 10.1944 11.2514 9.86407 13.5352 11.4023Z" fill="url(#paint6_linear_262_1169)"/>
<path d="M21.9844 1.23047C22.6863 1.71306 23.1784 2.36532 23.3488 3.21076C23.4574 4.0569 23.2991 4.87121 22.7893 5.573C22.2541 6.19492 21.5654 6.58627 20.7481 6.67049C19.9046 6.7014 19.1781 6.50337 18.5208 5.96169C17.904 5.38014 17.5514 4.61049 17.5239 3.75293C17.6227 2.76472 17.9637 2.01344 18.747 1.36954C19.683 0.725806 20.9926 0.672576 21.9844 1.23047Z" fill="url(#paint7_linear_262_1169)"/>
<path d="M32.4786 4.53959C33.077 5.01942 33.4275 5.64105 33.5508 6.39843C33.6245 7.16327 33.5104 7.87926 33.0596 8.51522C32.5075 9.15791 31.8942 9.63514 31.0267 9.70436C30.1121 9.71771 29.4444 9.6276 28.7228 9.03112C28.0545 8.37864 27.7386 7.65471 27.7266 6.72656C27.7997 5.89207 28.0837 5.1648 28.7109 4.59375C29.9078 3.73321 31.2718 3.68386 32.4786 4.53959Z" fill="url(#paint8_linear_262_1169)"/>
<path d="M12.1252 4.52197C12.6903 4.99183 13.103 5.71518 13.1865 6.44971C13.2597 7.34321 13.0113 8.10523 12.4482 8.79272C11.933 9.35314 11.3604 9.64021 10.5958 9.70724C9.56893 9.71732 8.90427 9.55293 8.14321 8.83021C7.52471 8.10953 7.31629 7.32494 7.38282 6.39844C7.52085 5.61235 7.91854 4.94995 8.54279 4.45276C9.65305 3.6877 11.0312 3.74936 12.1252 4.52197Z" fill="url(#paint9_linear_262_1169)"/>
<path d="M35.6631 16.4678C36.2941 16.9208 36.6985 17.4869 36.8801 18.2484C37.0145 19.0739 36.9145 19.8803 36.4228 20.5738C35.927 21.151 35.3271 21.6719 34.5397 21.7551C34.3635 21.7632 34.1885 21.7647 34.0122 21.7639C33.924 21.7659 33.924 21.7659 33.834 21.7679C33.389 21.7683 33.0573 21.6671 32.6484 21.4922C32.6431 21.4407 32.6378 21.3892 32.6323 21.3362C32.4975 20.0658 32.3348 18.8051 31.8512 17.6136C31.7268 17.2525 31.7268 17.2525 31.8281 16.9805C32.8262 15.8399 34.3943 15.6742 35.6631 16.4678Z" fill="url(#paint10_linear_262_1169)"/>
<path d="M8.85687 16.6754C9.02349 16.8164 9.02349 16.8164 9.18755 17.0625C9.15667 17.4379 9.03715 17.7709 8.9107 18.1238C8.53321 19.222 8.39718 20.3422 8.28521 21.4922C7.82096 21.6888 7.44508 21.7815 6.94195 21.7742C6.88105 21.7735 6.82015 21.7728 6.7574 21.7721C5.91748 21.7464 5.33458 21.4424 4.75787 20.8359C4.18342 20.2094 3.96788 19.5278 3.99651 18.6807C4.08035 17.868 4.42935 17.1824 5.0296 16.6267C6.20571 15.6879 7.68974 15.8333 8.85687 16.6754Z" fill="url(#paint11_linear_262_1169)"/>
<path d="M24.4197 8.92602C24.9818 9.43948 25.3583 10.0603 25.6758 10.7461C25.2766 10.6946 24.9219 10.5753 24.5479 10.4333C24.0414 10.248 23.5365 10.0982 23.0098 9.98218C22.951 9.96914 22.8922 9.9561 22.8317 9.94266C20.5141 9.45497 17.9044 9.69698 15.7484 10.6967C15.5542 10.7557 15.4471 10.7296 15.2578 10.6641C16.1203 9.16469 17.2206 8.04806 18.9338 7.56225C20.9767 7.06825 22.8315 7.59539 24.4197 8.92602Z" fill="url(#paint12_linear_262_1169)"/>
<path d="M21.9097 18.2286C22.2838 18.5781 22.5343 19.0105 22.581 19.5238C22.6024 20.2722 22.5234 20.8267 22.0136 21.397C21.4619 21.9064 20.9441 22.0381 20.2031 22.0177C19.5324 21.9348 19.082 21.5987 18.6519 21.0952C18.2978 20.5389 18.3161 19.9139 18.375 19.2774C18.5586 18.6394 19.0367 18.2 19.6055 17.8828C20.3932 17.5768 21.2376 17.7321 21.9097 18.2286Z" fill="url(#paint13_linear_262_1169)"/>
<defs>
<linearGradient id="paint0_linear_262_1169" x1="9.48987" y1="26.0091" x2="40.7286" y2="26.0091" gradientUnits="userSpaceOnUse">
<stop stop-color="#E58FFF"/>
<stop offset="1" stop-color="white"/>
</linearGradient>
<linearGradient id="paint1_linear_262_1169" x1="13.2709" y1="20.4066" x2="27.6443" y2="20.4066" gradientUnits="userSpaceOnUse">
<stop stop-color="#E58FFF"/>
<stop offset="1" stop-color="white"/>
</linearGradient>
<linearGradient id="paint2_linear_262_1169" x1="15.7289" y1="26.1377" x2="25.2178" y2="26.1377" gradientUnits="userSpaceOnUse">
<stop stop-color="#E58FFF"/>
<stop offset="1" stop-color="white"/>
</linearGradient>
<linearGradient id="paint3_linear_262_1169" x1="1.3125" y1="25.0907" x2="9.67969" y2="25.0907" gradientUnits="userSpaceOnUse">
<stop stop-color="#E58FFF"/>
<stop offset="1" stop-color="white"/>
</linearGradient>
<linearGradient id="paint4_linear_262_1169" x1="31.2539" y1="25.0683" x2="39.6211" y2="25.0683" gradientUnits="userSpaceOnUse">
<stop stop-color="#E58FFF"/>
<stop offset="1" stop-color="white"/>
</linearGradient>
<linearGradient id="paint5_linear_262_1169" x1="27.1523" y1="13.0824" x2="36.2614" y2="13.0824" gradientUnits="userSpaceOnUse">
<stop stop-color="#E58FFF"/>
<stop offset="1" stop-color="white"/>
</linearGradient>
<linearGradient id="paint6_linear_262_1169" x1="4.67542" y1="13.0687" x2="13.7813" y2="13.0687" gradientUnits="userSpaceOnUse">
<stop stop-color="#E58FFF"/>
<stop offset="1" stop-color="white"/>
</linearGradient>
<linearGradient id="paint7_linear_262_1169" x1="17.5239" y1="3.76005" x2="23.3813" y2="3.76005" gradientUnits="userSpaceOnUse">
<stop stop-color="#E58FFF"/>
<stop offset="1" stop-color="white"/>
</linearGradient>
<linearGradient id="paint8_linear_262_1169" x1="27.7266" y1="6.81402" x2="33.5715" y2="6.81402" gradientUnits="userSpaceOnUse">
<stop stop-color="#E58FFF"/>
<stop offset="1" stop-color="white"/>
</linearGradient>
<linearGradient id="paint9_linear_262_1169" x1="7.37097" y1="6.80869" x2="13.199" y2="6.80869" gradientUnits="userSpaceOnUse">
<stop stop-color="#E58FFF"/>
<stop offset="1" stop-color="white"/>
</linearGradient>
<linearGradient id="paint10_linear_262_1169" x1="31.7548" y1="18.8722" x2="36.9346" y2="18.8722" gradientUnits="userSpaceOnUse">
<stop stop-color="#E58FFF"/>
<stop offset="1" stop-color="white"/>
</linearGradient>
<linearGradient id="paint11_linear_262_1169" x1="3.99402" y1="18.8779" x2="9.18755" y2="18.8779" gradientUnits="userSpaceOnUse">
<stop stop-color="#E58FFF"/>
<stop offset="1" stop-color="white"/>
</linearGradient>
<linearGradient id="paint12_linear_262_1169" x1="15.2578" y1="9.06295" x2="25.6758" y2="9.06295" gradientUnits="userSpaceOnUse">
<stop stop-color="#E58FFF"/>
<stop offset="1" stop-color="white"/>
</linearGradient>
<linearGradient id="paint13_linear_262_1169" x1="18.3418" y1="19.8728" x2="22.5841" y2="19.8728" gradientUnits="userSpaceOnUse">
<stop stop-color="#E58FFF"/>
<stop offset="1" stop-color="white"/>
</linearGradient>
</defs>
</svg>
