<svg width="38" height="38" viewBox="0 0 38 38" fill="none" xmlns="http://www.w3.org/2000/svg">
<path d="M4.98279 0.0293936C5.1086 0.0291455 5.23441 0.0288264 5.36021 0.0284426C5.70457 0.0276009 6.04893 0.0277779 6.39329 0.0281293C6.76521 0.028332 7.13712 0.0275919 7.50904 0.0269778C8.23717 0.0259328 8.96529 0.0257849 9.69342 0.025977C10.2854 0.0261234 10.8774 0.0259796 11.4694 0.0256305C11.5958 0.0255573 11.5958 0.0255573 11.7248 0.0254825C11.8961 0.0253831 12.0674 0.0252835 12.2387 0.0251838C13.8444 0.0242918 15.4502 0.0244689 17.056 0.0249692C18.5241 0.0253932 19.9922 0.0244701 21.4603 0.0229104C22.9687 0.0213202 24.4771 0.0206436 25.9855 0.0209517C26.8319 0.0211085 27.6784 0.0209052 28.5249 0.0197447C29.2455 0.0187666 29.9662 0.018653 30.6869 0.0196455C31.0543 0.020128 31.4218 0.0202202 31.7892 0.0192351C32.1261 0.0183426 32.4629 0.018601 32.7998 0.0197488C32.9211 0.0199654 33.0425 0.0197733 33.1639 0.0191142C34.405 0.0128464 35.4904 0.206326 36.438 1.06207C37.3029 1.97275 37.5642 2.88872 37.561 4.11377C37.5613 4.21741 37.5617 4.32105 37.5621 4.42783C37.5631 4.71457 37.5631 5.00131 37.5629 5.28805C37.5628 5.59768 37.5637 5.90731 37.5645 6.21694C37.5659 6.82325 37.5663 7.42956 37.5664 8.03587C37.5665 8.52891 37.5668 9.02195 37.5674 9.51499C37.5688 10.9138 37.5696 12.3127 37.5694 13.7115C37.5694 13.7869 37.5694 13.8623 37.5694 13.9399C37.5694 14.0154 37.5694 14.0908 37.5694 14.1686C37.5693 15.3911 37.5709 16.6137 37.5732 17.8362C37.5756 19.0924 37.5767 20.3487 37.5766 21.6049C37.5765 22.3098 37.577 23.0147 37.5787 23.7196C37.5802 24.3199 37.5806 24.9202 37.5795 25.5204C37.5789 25.8264 37.5789 26.1324 37.5803 26.4384C37.5819 26.7708 37.5808 27.1032 37.5796 27.4357C37.5804 27.5314 37.5813 27.6271 37.5821 27.7257C37.573 28.8206 37.2017 29.763 36.4758 30.5843C35.4571 31.5689 34.2437 31.8249 32.8717 31.8155C32.7787 31.8155 32.6858 31.8155 32.59 31.8156C32.286 31.8155 31.982 31.8142 31.678 31.8129C31.4659 31.8126 31.2538 31.8124 31.0418 31.8122C30.5427 31.8116 30.0436 31.8103 29.5445 31.8087C28.9758 31.8068 28.407 31.806 27.8382 31.8051C26.6695 31.8034 25.5007 31.8004 24.332 31.7969C24.332 32.5278 24.332 33.2587 24.332 34.0117C24.8154 33.9988 24.8154 33.9988 25.2987 33.9822C25.8658 33.9746 26.281 34.1105 26.7128 34.4831C26.7494 34.5289 26.786 34.5746 26.8237 34.6218C26.8615 34.6674 26.8994 34.713 26.9384 34.7599C27.2737 35.2735 27.2332 35.798 27.2338 36.3906C27.2359 36.4871 27.2379 36.5835 27.2399 36.6829C27.2403 36.7759 27.2406 36.869 27.2409 36.9648C27.2416 37.0494 27.2422 37.134 27.2429 37.2212C27.193 37.5167 27.0802 37.653 26.875 37.8672C26.6295 37.9899 26.3777 37.9614 26.1085 37.9613C26.0456 37.9616 25.9828 37.9619 25.9181 37.9622C25.7064 37.9631 25.4948 37.9634 25.2831 37.9637C25.1318 37.9642 24.9805 37.9648 24.8292 37.9654C24.4174 37.9668 24.0055 37.9677 23.5936 37.9683C23.3365 37.9688 23.0793 37.9693 22.8222 37.9698C22.0181 37.9713 21.214 37.9725 20.4098 37.9732C19.4808 37.974 18.5517 37.9762 17.6226 37.9795C16.9051 37.9819 16.1875 37.9832 15.4699 37.9834C15.0411 37.9836 14.6123 37.9844 14.1834 37.9864C13.7801 37.9883 13.3767 37.9887 12.9733 37.9878C12.8252 37.9878 12.6771 37.9883 12.529 37.9894C12.3269 37.9909 12.1248 37.9903 11.9227 37.9892C11.8347 37.9906 11.8347 37.9906 11.7448 37.992C11.3527 37.9869 11.1543 37.8985 10.8789 37.6211C10.7033 37.27 10.7743 36.807 10.7712 36.4214C10.7688 36.3259 10.7664 36.2304 10.764 36.132C10.7591 35.4707 10.8309 35.0087 11.2682 34.502C11.314 34.4654 11.3598 34.4288 11.4069 34.3911C11.4525 34.3533 11.4981 34.3154 11.545 34.2764C11.994 33.9833 12.3944 33.9915 12.9143 34.0015C13.163 34.0048 13.4117 34.0082 13.6679 34.0117C13.6679 33.2808 13.6679 32.5499 13.6679 31.7969C13.3844 31.7977 13.1009 31.7986 12.8087 31.7995C11.87 31.8022 10.9313 31.804 9.99263 31.8054C9.42371 31.8062 8.8548 31.8074 8.28589 31.8093C7.73645 31.8111 7.18702 31.812 6.63758 31.8124C6.42838 31.8127 6.21917 31.8133 6.00996 31.8142C5.71605 31.8154 5.42216 31.8156 5.12825 31.8155C5.04251 31.8161 4.95678 31.8167 4.86845 31.8173C3.59631 31.8138 2.45851 31.4875 1.5241 30.5843C0.70974 29.6629 0.409926 28.6511 0.419229 27.4385C0.418717 27.3345 0.418205 27.2305 0.417678 27.1233C0.41632 26.8375 0.41698 26.5517 0.418002 26.2659C0.418748 25.9566 0.417596 25.6472 0.416696 25.3379C0.415241 24.733 0.41555 24.1281 0.416503 23.5232C0.417246 23.0314 0.417344 22.5395 0.416987 22.0476C0.416912 21.9424 0.416912 21.9424 0.416835 21.835C0.41673 21.6925 0.416624 21.5499 0.416516 21.4074C0.415581 20.0725 0.416654 18.7376 0.418419 17.4027C0.419885 16.2588 0.41963 15.1148 0.418118 13.9709C0.416359 12.6406 0.415672 11.3103 0.416678 9.97994C0.416782 9.83793 0.416886 9.69592 0.416987 9.55391C0.417038 9.48405 0.417089 9.41419 0.417141 9.34221C0.417423 8.85127 0.416947 8.36034 0.416174 7.8694C0.415251 7.27064 0.415508 6.67188 0.41725 6.07312C0.418109 5.76796 0.418456 5.46282 0.417365 5.15766C0.416198 4.82612 0.417597 4.49464 0.419229 4.1631C0.418497 4.06769 0.417765 3.97228 0.417011 3.87398C0.427847 2.73508 0.818352 1.88542 1.58081 1.05086C2.5426 0.14551 3.72841 0.0258817 4.98279 0.0293936ZM2.14702 2.41014C1.81363 2.89013 1.681 3.3923 1.68127 3.97449C1.68111 4.05248 1.68094 4.13048 1.68078 4.21083C1.68101 4.29579 1.68125 4.38075 1.6815 4.46829C1.68143 4.55886 1.68136 4.64944 1.68129 4.74276C1.68115 5.04779 1.6816 5.35281 1.68205 5.65784C1.68212 5.87965 1.68207 6.10146 1.68202 6.32326C1.68198 6.85772 1.68236 7.39218 1.68288 7.92664C1.68347 8.54485 1.68354 9.16307 1.6836 9.78129C1.68403 11.4135 1.68518 13.0457 1.68624 14.678C1.68793 18.324 1.68962 21.97 1.69136 25.7266C13.115 25.7266 24.5387 25.7266 36.3086 25.7266C36.3136 22.089 36.3187 18.4514 36.3239 14.7036C36.3262 13.5548 36.3284 12.4059 36.3307 11.2223C36.3315 10.193 36.3315 10.193 36.332 9.16378C36.3323 8.70513 36.3332 8.24648 36.3345 7.78782C36.3361 7.25858 36.3368 6.72936 36.3365 6.20012C36.3363 5.92952 36.3367 5.65893 36.3379 5.38833C36.3391 5.09808 36.3388 4.80786 36.3381 4.51761C36.3389 4.43384 36.3396 4.35008 36.3403 4.26378C36.3341 3.26319 36.0489 2.58017 35.3447 1.87597C34.5988 1.35959 33.8926 1.31554 33.0041 1.32051C32.8779 1.32001 32.7517 1.31937 32.6255 1.31861C32.2804 1.31692 31.9353 1.31728 31.5902 1.31798C31.2173 1.31839 30.8444 1.3169 30.4716 1.31568C29.7418 1.31359 29.012 1.31329 28.2821 1.31368C27.6888 1.31397 27.0954 1.31368 26.5021 1.31298C26.4176 1.31288 26.333 1.31279 26.246 1.31269C26.0742 1.31249 25.9025 1.31229 25.7308 1.31209C24.1212 1.31031 22.5117 1.31066 20.9021 1.31166C19.4306 1.31251 17.959 1.31066 16.4874 1.30754C14.9753 1.30436 13.4632 1.30301 11.9511 1.30362C11.1027 1.30394 10.2542 1.30353 9.40568 1.30121C8.68337 1.29925 7.96108 1.29903 7.23877 1.30101C6.87047 1.30198 6.50222 1.30216 6.13392 1.30019C5.79629 1.29841 5.45874 1.29892 5.12111 1.30122C4.99945 1.30165 4.87778 1.30127 4.75613 1.29995C3.67224 1.28903 2.84474 1.54885 2.14702 2.41014ZM18.0976 28.2695C18.0052 28.5236 17.9824 28.7396 18.0156 29.0078C18.1903 29.3706 18.3823 29.5868 18.7539 29.7461C19.0761 29.7941 19.2177 29.7611 19.5075 29.6077C19.7491 29.4091 19.874 29.2998 19.9843 29.0078C20.0161 28.6712 19.9897 28.3929 19.7911 28.1125C19.5524 27.882 19.3342 27.7451 19 27.7158C18.6013 27.7508 18.3268 27.9475 18.0976 28.2695Z" fill="url(#paint0_linear_262_1185)"/>
<defs>
<linearGradient id="paint0_linear_262_1185" x1="0.415649" y1="19.0053" x2="37.5821" y2="19.0053" gradientUnits="userSpaceOnUse">
<stop stop-color="#E58FFF"/>
<stop offset="1" stop-color="white"/>
</linearGradient>
</defs>
</svg>
