<svg width="38" height="38" viewBox="0 0 38 38" fill="none" xmlns="http://www.w3.org/2000/svg">
<g clip-path="url(#clip0_262_1163)">
<path d="M1.30497 4.5056C1.3654 4.50592 1.42582 4.50623 1.48808 4.50656C1.68017 4.5078 1.87219 4.51059 2.06426 4.51343C2.19487 4.51455 2.32548 4.51557 2.45608 4.51648C2.77545 4.51893 3.09477 4.52277 3.41412 4.52735C3.41436 4.624 3.41461 4.72065 3.41486 4.82022C3.42073 7.11721 3.42736 9.41419 3.4349 11.7112C3.43583 11.9942 3.43675 12.2773 3.43767 12.5603C3.43785 12.6167 3.43804 12.673 3.43823 12.7311C3.44117 13.642 3.4436 14.553 3.44584 15.464C3.44816 16.3996 3.45102 17.3351 3.4544 18.2707C3.45646 18.8474 3.4581 19.4242 3.45919 20.0009C3.46006 20.4441 3.46172 20.8872 3.46365 21.3303C3.46432 21.5114 3.46474 21.6926 3.4649 21.8737C3.44857 24.0195 3.44857 24.0195 4.51261 25.8304C5.45715 26.676 6.5488 26.7302 7.75761 26.7287C7.85853 26.7288 7.95944 26.729 8.06035 26.7292C8.33623 26.7296 8.61211 26.7296 8.88799 26.7295C9.18609 26.7295 9.48418 26.7299 9.78228 26.7303C10.3658 26.7309 10.9493 26.7311 11.5328 26.7312C12.0073 26.7312 12.4818 26.7313 12.9563 26.7316C14.3028 26.7322 15.6493 26.7326 16.9958 26.7325C17.1046 26.7325 17.1046 26.7325 17.2155 26.7325C17.2882 26.7325 17.3608 26.7325 17.4356 26.7325C18.6122 26.7325 19.7888 26.7332 20.9654 26.7342C22.1747 26.7353 23.384 26.7358 24.5933 26.7357C25.2718 26.7357 25.9502 26.7359 26.6287 26.7367C27.2064 26.7374 27.784 26.7376 28.3617 26.7371C28.6562 26.7368 28.9506 26.7368 29.245 26.7374C29.5152 26.738 29.7853 26.7379 30.0554 26.7373C30.1982 26.7371 30.3409 26.7377 30.4837 26.7383C31.6921 26.7335 32.7212 26.5527 33.6235 25.6945C34.4169 24.8082 34.5224 23.7927 34.5235 22.6543C34.5241 22.5375 34.5241 22.5375 34.5246 22.4184C34.5258 22.1589 34.5264 21.8994 34.527 21.64C34.5277 21.4534 34.5285 21.2669 34.5292 21.0803C34.5308 20.6794 34.5322 20.2785 34.5334 19.8775C34.5351 19.2979 34.5371 18.7182 34.5393 18.1385C34.5429 17.198 34.5461 16.2574 34.5491 15.3168C34.552 14.4034 34.5551 13.49 34.5584 12.5766C34.5587 12.4921 34.5587 12.4921 34.559 12.4058C34.56 12.1231 34.561 11.8404 34.562 11.5576C34.5705 9.21421 34.5784 6.87078 34.586 4.52735C34.9689 4.51999 35.3518 4.51461 35.7348 4.51104C35.8649 4.50955 35.9951 4.50753 36.1252 4.50495C36.3128 4.50133 36.5003 4.49966 36.6879 4.49836C36.7457 4.49682 36.8034 4.49529 36.8629 4.49371C37.2509 4.49356 37.4738 4.56162 37.7774 4.82422C37.9786 5.10272 38.0279 5.29467 38.0283 5.63615C38.0289 5.72503 38.0295 5.81391 38.0302 5.90549C38.0297 6.00287 38.0293 6.10025 38.0288 6.20058C38.0291 6.30528 38.0295 6.40998 38.03 6.51468C38.0311 6.80239 38.0308 7.09009 38.0303 7.3778C38.0299 7.68809 38.0308 7.99837 38.0316 8.30866C38.0329 8.91653 38.0329 9.5244 38.0325 10.1323C38.0322 10.6263 38.0323 11.1203 38.0327 11.6143C38.0328 11.6845 38.0329 11.7548 38.0329 11.8272C38.033 11.9699 38.0331 12.1127 38.0333 12.2554C38.0343 13.5945 38.0339 14.9335 38.033 16.2726C38.0323 17.498 38.0332 18.7235 38.035 19.9489C38.0368 21.2068 38.0375 22.4646 38.037 23.7225C38.0368 24.4289 38.037 25.1352 38.0382 25.8416C38.0393 26.4429 38.0394 27.0442 38.0381 27.6455C38.0375 27.9524 38.0373 28.2592 38.0384 28.566C38.0395 28.8469 38.0391 29.1277 38.0377 29.4086C38.0373 29.5584 38.0383 29.7082 38.0394 29.858C38.0326 30.6865 38.0326 30.6865 37.7032 31.0234C37.3857 31.266 37.1008 31.2777 36.7151 31.2743C36.6529 31.2747 36.5907 31.275 36.5266 31.2754C36.3172 31.2763 36.1079 31.2756 35.8985 31.2749C35.7473 31.2752 35.5961 31.2756 35.4448 31.2761C35.0285 31.2772 34.6122 31.2768 34.1959 31.2763C33.7471 31.2759 33.2984 31.2769 32.8497 31.2776C32.0212 31.2788 31.1928 31.279 30.3643 31.2786C29.5989 31.2783 28.8336 31.2784 28.0682 31.2788C27.9656 31.2788 27.863 31.2789 27.7604 31.279C27.6058 31.279 27.4512 31.2791 27.2966 31.2792C25.8589 31.28 24.4212 31.2804 22.9835 31.2798C22.9293 31.2797 22.8751 31.2797 22.8192 31.2797C22.3789 31.2795 21.9387 31.2793 21.4984 31.2791C19.7809 31.2784 18.0633 31.279 16.3458 31.2807C14.4168 31.2827 12.4877 31.2836 10.5587 31.2831C10.3531 31.283 10.1474 31.283 9.94184 31.2829C9.89121 31.2829 9.84058 31.2829 9.78842 31.2829C9.02355 31.2827 8.25867 31.2833 7.4938 31.2843C6.62413 31.2854 5.75447 31.2854 4.8848 31.2841C4.44087 31.2835 3.99694 31.2834 3.55301 31.2845C3.14689 31.2855 2.74079 31.2852 2.33467 31.2837C2.18749 31.2834 2.0403 31.2837 1.89312 31.2844C1.69351 31.2854 1.49398 31.2846 1.29438 31.2833C1.23683 31.284 1.17928 31.2847 1.11999 31.2854C0.735467 31.2802 0.514262 31.1993 0.222709 30.9492C0.011039 30.6772 -0.0278348 30.4782 -0.0281741 30.1373C-0.0288005 30.0484 -0.0294269 29.9595 -0.0300723 29.868C-0.0296263 29.7706 -0.0291803 29.6732 -0.0287207 29.5729C-0.0290304 29.4682 -0.0294369 29.3635 -0.0299319 29.2588C-0.0310065 28.9711 -0.0306892 28.6834 -0.0301423 28.3956C-0.0297917 28.0854 -0.030719 27.7751 -0.0314794 27.4648C-0.0327567 26.8569 -0.0328171 26.249 -0.0324285 25.6412C-0.0321287 25.1472 -0.0322354 24.6532 -0.0326325 24.1592C-0.032688 24.0889 -0.0327435 24.0186 -0.0328008 23.9462C-0.0329144 23.8035 -0.0330287 23.6608 -0.0331434 23.518C-0.0341626 22.179 -0.033758 20.8399 -0.0329069 19.5008C-0.0321697 18.2754 -0.0331302 17.05 -0.0349059 15.8245C-0.0367149 14.5667 -0.0374296 13.3088 -0.0369356 12.0509C-0.0366762 11.3446 -0.036844 10.6382 -0.0381417 9.93185C-0.0392328 9.33055 -0.0392836 8.72925 -0.037988 8.12795C-0.0373549 7.8211 -0.0372006 7.51426 -0.0383333 7.20741C-0.0393573 6.92654 -0.0390123 6.6457 -0.0375734 6.36483C-0.0371603 6.21502 -0.0382081 6.06522 -0.0393066 5.91542C-0.032532 5.08695 -0.032532 5.08695 0.296927 4.75C0.607669 4.48937 0.91638 4.49793 1.30497 4.5056Z" fill="url(#paint0_linear_262_1163)"/>
<path d="M5.6406 11.207C14.4578 11.207 23.275 11.207 32.3593 11.207C32.3593 23.8984 32.3593 23.8984 32.0625 24.3438C31.7905 24.5554 31.5915 24.5943 31.2505 24.5946C31.1617 24.5953 31.0728 24.5959 30.9812 24.5965C30.8838 24.5961 30.7864 24.5956 30.6861 24.5952C30.5814 24.5955 30.4767 24.5959 30.372 24.5964C30.0843 24.5975 29.7966 24.5971 29.5089 24.5966C29.1986 24.5963 28.8883 24.5972 28.578 24.5979C27.9702 24.5992 27.3623 24.5993 26.7544 24.5989C26.2604 24.5986 25.7664 24.5987 25.2724 24.5991C25.167 24.5992 25.167 24.5992 25.0595 24.5993C24.9167 24.5994 24.774 24.5995 24.6313 24.5996C23.2922 24.6006 21.9532 24.6002 20.6141 24.5994C19.3887 24.5986 18.1632 24.5996 16.9378 24.6014C15.6799 24.6032 14.4221 24.6039 13.1642 24.6034C12.4578 24.6031 11.7515 24.6033 11.0451 24.6046C10.4438 24.6057 9.84251 24.6057 9.2412 24.6044C8.93435 24.6038 8.62752 24.6037 8.32067 24.6048C8.03979 24.6058 7.75895 24.6055 7.47808 24.604C7.32828 24.6036 7.17847 24.6047 7.02867 24.6058C6.20021 24.599 6.20021 24.599 5.86326 24.2695C3.62273 20.5353 5.6406 15.5618 5.6406 11.207ZM9.2031 13.8789C9.00117 14.2105 9.00635 14.5404 9.05466 14.918C9.21746 15.2496 9.38769 15.4307 9.72263 15.5859C10.0591 15.6758 10.395 15.6711 10.7408 15.6709C10.8373 15.6713 10.8373 15.6713 10.9358 15.6717C11.1482 15.6724 11.3605 15.6725 11.5729 15.6726C11.7209 15.6729 11.8689 15.6731 12.0168 15.6734C12.3269 15.6738 12.637 15.674 12.9471 15.6739C13.3438 15.6739 13.7405 15.6749 14.1372 15.6762C14.4428 15.677 14.7484 15.6772 15.0541 15.6771C15.2003 15.6772 15.3465 15.6775 15.4928 15.6781C15.6976 15.6788 15.9023 15.6786 16.1071 15.6782C16.1972 15.6788 16.1972 15.6788 16.289 15.6794C16.7467 15.6769 17.1433 15.6414 17.5017 15.3308C17.7908 14.9921 17.8512 14.8016 17.8397 14.3668C17.7947 14.0513 17.6777 13.8655 17.4414 13.6562C17.0045 13.4447 16.5711 13.4014 16.0927 13.406C16.0282 13.4057 15.9638 13.4054 15.8975 13.4051C15.6867 13.4045 15.476 13.4055 15.2653 13.4066C15.1177 13.4067 14.9701 13.4066 14.8226 13.4065C14.5143 13.4065 14.206 13.4073 13.8977 13.4086C13.5033 13.4103 13.1089 13.4104 12.7146 13.4099C12.4102 13.4096 12.1059 13.4101 11.8015 13.4108C11.6561 13.4111 11.5107 13.4112 11.3653 13.4111C11.1619 13.4111 10.9586 13.412 10.7553 13.4132C10.6957 13.413 10.6362 13.4128 10.5748 13.4127C10.0431 13.4176 9.59777 13.4955 9.2031 13.8789ZM20.271 13.9624C20.0571 14.509 20.2031 15.0739 20.3872 15.6083C20.4084 15.6729 20.4296 15.7374 20.4515 15.8039C20.5213 16.015 20.5926 16.2255 20.6641 16.436C20.7134 16.5836 20.7626 16.7312 20.8117 16.8789C20.9146 17.1873 21.0182 17.4954 21.1225 17.8034C21.2558 18.1974 21.3875 18.592 21.5187 18.9868C21.6201 19.2913 21.7221 19.5956 21.8244 19.8998C21.8732 20.0452 21.9218 20.1907 21.9703 20.3362C22.0382 20.5396 22.1069 20.7427 22.1759 20.9457C22.1957 21.0054 22.2154 21.0651 22.2358 21.1266C22.3772 21.5384 22.5355 21.8882 22.8686 22.1821C23.1829 22.3051 23.4922 22.329 23.8242 22.2656C24.2759 22.0259 24.6105 21.6444 24.9653 21.2822C25.027 21.2198 25.0887 21.1575 25.1523 21.0932C25.3037 20.9401 25.4547 20.7866 25.6054 20.6328C25.8601 20.7421 26.021 20.8844 26.2131 21.0828C26.2711 21.1419 26.3291 21.201 26.3888 21.2619C26.5098 21.3868 26.6308 21.5116 26.7518 21.6365C26.8097 21.6956 26.8677 21.7548 26.9275 21.8157C26.98 21.8699 27.0325 21.9242 27.0866 21.9801C27.4056 22.2685 27.6753 22.2984 28.0938 22.2891C28.4421 22.2445 28.6368 22.066 28.8618 21.811C28.9848 21.4967 29.0087 21.1875 28.9453 20.8555C28.7055 20.4037 28.324 20.0692 27.9619 19.7144C27.8995 19.6526 27.8371 19.5909 27.7729 19.5274C27.6197 19.376 27.4663 19.2249 27.3125 19.0742C27.4218 18.8195 27.5641 18.6586 27.7624 18.4666C27.8215 18.4086 27.8807 18.3506 27.9416 18.2909C28.0664 18.1699 28.1913 18.0489 28.3162 17.9279C28.3753 17.8699 28.4344 17.8119 28.4953 17.7522C28.5767 17.6734 28.5767 17.6734 28.6597 17.593C28.948 17.2743 28.979 17.0041 28.9679 16.5856C28.9331 16.3038 28.8433 16.1617 28.6484 15.957C28.2603 15.722 27.8347 15.5719 27.4063 15.4289C27.3444 15.4078 27.2825 15.3868 27.2188 15.3651C27.0161 15.2964 26.8132 15.2283 26.6103 15.1603C26.4681 15.1125 26.326 15.0647 26.1839 15.0168C25.8867 14.917 25.5893 14.8175 25.2919 14.7182C24.9121 14.5913 24.5327 14.463 24.1535 14.3343C23.8603 14.2351 23.5669 14.1369 23.2733 14.039C23.1333 13.9922 22.9935 13.9449 22.8538 13.8973C22.6579 13.8307 22.4616 13.7655 22.2652 13.7007C22.2084 13.681 22.1516 13.6614 22.0931 13.6411C21.3961 13.4149 20.7866 13.3781 20.271 13.9624ZM9.2031 18.332C9.00117 18.6636 9.00635 18.9935 9.05466 19.3711C9.21746 19.7027 9.38769 19.8838 9.72263 20.0391C10.0591 20.129 10.395 20.1243 10.7408 20.1241C10.8373 20.1244 10.8373 20.1244 10.9358 20.1248C11.1482 20.1255 11.3605 20.1257 11.5729 20.1257C11.7209 20.126 11.8689 20.1262 12.0168 20.1265C12.3269 20.1269 12.637 20.1271 12.9471 20.127C13.3438 20.127 13.7405 20.128 14.1372 20.1293C14.4428 20.1301 14.7484 20.1303 15.0541 20.1303C15.2003 20.1303 15.3465 20.1307 15.4928 20.1312C15.6976 20.132 15.9023 20.1318 16.1071 20.1313C16.1972 20.1319 16.1972 20.1319 16.289 20.1326C16.7467 20.13 17.1433 20.0945 17.5017 19.7839C17.7908 19.4452 17.8512 19.2547 17.8397 18.82C17.7947 18.5044 17.6777 18.3187 17.4414 18.1094C17.0045 17.8978 16.5711 17.8545 16.0927 17.8591C16.0282 17.8588 15.9638 17.8585 15.8975 17.8583C15.6867 17.8577 15.476 17.8587 15.2653 17.8598C15.1177 17.8598 14.9701 17.8598 14.8226 17.8596C14.5143 17.8597 14.206 17.8604 13.8977 17.8618C13.5033 17.8635 13.1089 17.8635 12.7146 17.863C12.4102 17.8627 12.1059 17.8632 11.8015 17.864C11.6561 17.8643 11.5107 17.8643 11.3653 17.8642C11.1619 17.8642 10.9586 17.8651 10.7553 17.8663C10.6957 17.8661 10.6362 17.866 10.5748 17.8658C10.0431 17.8708 9.59777 17.9486 9.2031 18.332Z" fill="url(#paint1_linear_262_1163)"/>
<path d="M6.74942 -0.0282353C6.83831 -0.0288617 6.92719 -0.0294881 7.01877 -0.0301334C7.11614 -0.0296874 7.21352 -0.0292413 7.31385 -0.0287817C7.41855 -0.0290915 7.52326 -0.029498 7.62796 -0.029993C7.91567 -0.0310676 8.20336 -0.0307502 8.49108 -0.0302033C8.80136 -0.0298527 9.11165 -0.03078 9.42194 -0.0315405C10.0298 -0.0328178 10.6377 -0.0328782 11.2455 -0.0324895C11.7395 -0.0321898 12.2335 -0.0322965 12.7276 -0.0326935C12.7978 -0.032749 12.8681 -0.0328046 12.9405 -0.0328618C13.0832 -0.0329755 13.226 -0.0330897 13.3687 -0.0332043C14.7078 -0.0342236 16.0468 -0.033819 17.3859 -0.0329679C18.6113 -0.0322307 19.8367 -0.0331913 21.0622 -0.034967C22.3201 -0.0367759 23.5779 -0.0374906 24.8358 -0.0369966C25.5421 -0.0367372 26.2485 -0.036905 26.9549 -0.0382028C27.5562 -0.0392938 28.1575 -0.0393447 28.7588 -0.0380491C29.0656 -0.037416 29.3725 -0.0372616 29.6793 -0.0383943C29.9602 -0.0394183 30.241 -0.0390733 30.5219 -0.0376344C30.6717 -0.0372213 30.8215 -0.0382692 30.9713 -0.0393677C31.7998 -0.0325931 31.7998 -0.0325931 32.1367 0.296866C33.6264 2.77972 32.3594 6.08498 32.3594 8.98046C23.5422 8.98046 14.725 8.98046 5.64062 8.98046C5.64062 0.66796 5.64062 0.66796 5.9375 0.222648C6.20949 0.010978 6.40851 -0.0278959 6.74942 -0.0282353ZM9.20312 3.85937C8.99844 4.18769 9.00665 4.52304 9.05469 4.89843C9.21522 5.22544 9.38101 5.43271 9.72266 5.5664C10.097 5.61718 10.3781 5.609 10.72 5.44115C10.9693 5.21617 11.1101 5.06606 11.1563 4.72535C11.176 4.301 11.1305 4.03731 10.8359 3.71093C10.554 3.46213 10.2718 3.44612 9.90878 3.45696C9.61443 3.50648 9.40471 3.64175 9.20312 3.85937ZM13.6562 3.85937C13.4516 4.18769 13.4598 4.52304 13.5078 4.89843C13.6683 5.22544 13.8341 5.43271 14.1758 5.5664C14.5501 5.61718 14.8312 5.609 15.1731 5.44115C15.4224 5.21617 15.5632 5.06606 15.6094 4.72535C15.6291 4.301 15.5836 4.03731 15.2891 3.71093C15.0071 3.46213 14.7249 3.44612 14.3619 3.45696C14.0676 3.50648 13.8578 3.64175 13.6562 3.85937ZM18.1094 3.85937C17.9047 4.18769 17.9129 4.52304 17.9609 4.89843C18.1215 5.22544 18.2873 5.43271 18.6289 5.5664C19.0032 5.61718 19.2843 5.609 19.6262 5.44115C19.8755 5.21617 20.0163 5.06606 20.0625 4.72535C20.0823 4.301 20.0367 4.03731 19.7422 3.71093C19.4602 3.46213 19.1781 3.44612 18.815 3.45696C18.5207 3.50648 18.311 3.64175 18.1094 3.85937Z" fill="url(#paint2_linear_262_1163)"/>
<path d="M13.4336 33.4727C17.1075 33.4727 20.7813 33.4727 24.5665 33.4727C24.5665 34.2319 24.5665 34.9912 24.5665 35.7734C24.9686 35.7683 24.9686 35.7683 25.3788 35.763C25.6389 35.7607 25.8991 35.7589 26.1592 35.7571C26.3397 35.7556 26.5203 35.7536 26.7008 35.751C26.9606 35.7474 27.2203 35.7458 27.4801 35.7444C27.5606 35.7429 27.6411 35.7414 27.7241 35.7398C28.1803 35.7397 28.4513 35.7621 28.7969 36.0703C29.098 36.4579 29.077 36.861 29.0196 37.332C28.8585 37.6722 28.6912 37.8441 28.3516 38C28.1011 38.0328 27.8523 38.0304 27.5999 38.0288C27.4854 38.0294 27.4854 38.0294 27.3685 38.03C27.1122 38.031 26.8559 38.0305 26.5997 38.03C26.4161 38.0304 26.2325 38.0309 26.0489 38.0315C25.6017 38.0327 25.1546 38.0329 24.7075 38.0325C24.344 38.0322 23.9806 38.0323 23.6171 38.0327C23.5654 38.0327 23.5137 38.0328 23.4604 38.0329C23.3553 38.033 23.2502 38.0331 23.1451 38.0332C22.1597 38.0342 21.1742 38.0338 20.1887 38.033C19.2873 38.0322 18.3858 38.0332 17.4843 38.035C16.5585 38.0368 15.6328 38.0375 14.707 38.037C14.1874 38.0367 13.6677 38.0369 13.148 38.0382C12.6593 38.0394 12.1707 38.0391 11.6821 38.0377C11.5026 38.0374 11.3232 38.0376 11.1437 38.0384C10.899 38.0394 10.6543 38.0385 10.4096 38.0372C10.3027 38.0383 10.3027 38.0383 10.1938 38.0394C9.77684 38.0347 9.5323 37.9847 9.20317 37.7031C8.90212 37.3155 8.92307 36.9124 8.98052 36.4414C9.14146 36.1016 9.30686 35.9248 9.64849 35.7734C9.93672 35.7426 10.2232 35.7476 10.5127 35.7517C10.5962 35.752 10.6797 35.7523 10.7657 35.7526C11.0319 35.7539 11.2981 35.7567 11.5643 35.7595C11.7449 35.7606 11.9256 35.7617 12.1063 35.7626C12.5487 35.7648 12.9911 35.7692 13.4336 35.7734C13.4336 35.0142 13.4336 34.2549 13.4336 33.4727Z" fill="url(#paint3_linear_262_1163)"/>
<path d="M22.9336 16.2539C23.5942 16.4211 24.2347 16.6367 24.8772 16.8616C24.9772 16.8963 25.0771 16.9311 25.1771 16.9658C25.419 17.0498 25.6607 17.1342 25.9023 17.2188C25.5235 17.6775 25.1095 18.0944 24.687 18.5129C24.6182 18.5814 24.5494 18.6498 24.4786 18.7204C24.3101 18.888 24.1415 19.0554 23.9727 19.2227C23.7622 19.0122 23.7055 18.7574 23.6149 18.4805C23.5856 18.3924 23.5856 18.3924 23.5556 18.3025C23.5144 18.1783 23.4733 18.054 23.4325 17.9296C23.3698 17.7389 23.3064 17.5484 23.2429 17.3579C23.203 17.2373 23.1631 17.1167 23.1232 16.9961C23.1042 16.9389 23.0852 16.8817 23.0656 16.8227C22.9336 16.4196 22.9336 16.4196 22.9336 16.2539Z" fill="url(#paint4_linear_262_1163)"/>
</g>
<defs>
<linearGradient id="paint0_linear_262_1163" x1="-0.0393066" y1="17.8896" x2="38.0394" y2="17.8896" gradientUnits="userSpaceOnUse">
<stop stop-color="#E58FFF"/>
<stop offset="1" stop-color="white"/>
</linearGradient>
<linearGradient id="paint1_linear_262_1163" x1="4.80627" y1="17.9064" x2="32.3593" y2="17.9064" gradientUnits="userSpaceOnUse">
<stop stop-color="#E58FFF"/>
<stop offset="1" stop-color="white"/>
</linearGradient>
<linearGradient id="paint2_linear_262_1163" x1="5.64062" y1="4.47055" x2="32.8619" y2="4.47055" gradientUnits="userSpaceOnUse">
<stop stop-color="#E58FFF"/>
<stop offset="1" stop-color="white"/>
</linearGradient>
<linearGradient id="paint3_linear_262_1163" x1="8.9458" y1="35.756" x2="29.0543" y2="35.756" gradientUnits="userSpaceOnUse">
<stop stop-color="#E58FFF"/>
<stop offset="1" stop-color="white"/>
</linearGradient>
<linearGradient id="paint4_linear_262_1163" x1="22.9336" y1="17.7383" x2="25.9023" y2="17.7383" gradientUnits="userSpaceOnUse">
<stop stop-color="#E58FFF"/>
<stop offset="1" stop-color="white"/>
</linearGradient>
<clipPath id="clip0_262_1163">
<rect width="38" height="38" fill="white"/>
</clipPath>
</defs>
</svg>
