<svg width="44" height="44" viewBox="0 0 44 44" fill="none" xmlns="http://www.w3.org/2000/svg">
<g clip-path="url(#clip0_262_1187)">
<path d="M11.7762 8.06659C11.8852 8.06621 11.9943 8.06582 12.1066 8.06543C12.2283 8.06544 12.35 8.06545 12.4718 8.06548C12.6005 8.06519 12.7293 8.06487 12.858 8.06452C13.2128 8.06366 13.5675 8.06334 13.9223 8.06311C14.3045 8.06278 14.6868 8.06195 15.069 8.0612C15.9926 8.0595 16.9162 8.05864 17.8398 8.05787C18.2745 8.0575 18.7093 8.05704 19.1441 8.05659C20.5891 8.05512 22.0341 8.05388 23.4791 8.05326C23.8541 8.05309 24.2292 8.05293 24.6043 8.05276C24.6975 8.05272 24.7907 8.05268 24.8868 8.05263C26.3973 8.05192 27.9078 8.04974 29.4183 8.04695C30.9686 8.04411 32.5189 8.04256 34.0692 8.04229C34.9398 8.0421 35.8105 8.04135 36.6811 8.03915C37.4225 8.03729 38.1639 8.0366 38.9053 8.03743C39.2836 8.03782 39.6619 8.03766 40.0402 8.03599C40.3866 8.03448 40.733 8.03456 41.0795 8.0359C41.2047 8.0361 41.3299 8.03573 41.4551 8.03471C42.2255 8.02883 42.7893 8.05332 43.3974 8.56589C43.435 8.6123 43.4725 8.65872 43.5112 8.70654C43.5692 8.77517 43.5692 8.77517 43.6284 8.84518C43.9425 9.33723 44.0379 9.75375 44.031 10.3335C44.0312 10.4023 44.0314 10.4711 44.0317 10.542C44.0321 10.7719 44.0307 11.0017 44.0293 11.2316C44.0292 11.3995 44.0292 11.5673 44.0294 11.7352C44.0294 12.184 44.0279 12.6328 44.0261 13.0817C44.0246 13.5031 44.0246 13.9245 44.0244 14.346C44.023 15.5778 44.0194 16.8097 44.0161 18.0415C44.0108 20.7941 44.0055 23.5468 44 26.3828C35.6056 26.3828 27.2113 26.3828 18.5625 26.3828C18.5341 24.0006 18.5058 21.6184 18.4766 19.1641C18.1926 18.3123 17.9546 17.8125 17.1875 17.3594C16.7803 17.1951 16.4083 17.1614 15.9744 17.1601C15.9064 17.1592 15.8384 17.1584 15.7684 17.1575C15.5452 17.1548 15.322 17.1534 15.0988 17.1519C14.9435 17.1503 14.7882 17.1486 14.6328 17.1469C14.2251 17.1425 13.8174 17.1391 13.4096 17.1359C12.9931 17.1324 12.5767 17.128 12.1602 17.1237C11.3438 17.1154 10.5274 17.1082 9.71094 17.1016C9.70296 16.1513 9.69686 15.2011 9.69313 14.2508C9.69134 13.8095 9.68892 13.3682 9.68501 12.9269C9.68126 12.5006 9.67922 12.0744 9.67833 11.6481C9.6777 11.4859 9.67646 11.3236 9.6746 11.1614C9.6553 9.41046 9.6553 9.41046 10.2588 8.6958C10.7616 8.27683 11.1203 8.06766 11.7762 8.06659Z" fill="url(#paint0_linear_262_1187)"/>
<path d="M18.5625 27.1562C26.9569 27.1562 35.3512 27.1562 44 27.1562C44 29.9062 44 29.9062 43.5703 30.7656C43.1988 31.1371 42.8726 31.4187 42.332 31.4745C42.2593 31.4744 42.1866 31.4743 42.1117 31.4743C42.0274 31.4746 41.943 31.475 41.8561 31.4753C41.764 31.4748 41.672 31.4743 41.5771 31.4738C41.4789 31.4739 41.3806 31.4741 41.2793 31.4742C40.9493 31.4745 40.6193 31.4736 40.2893 31.4726C40.053 31.4725 39.8167 31.4726 39.5805 31.4727C39.0714 31.4728 38.5623 31.4723 38.0533 31.4713C37.3172 31.4699 36.5812 31.4695 35.8452 31.4692C34.6511 31.4689 33.4569 31.4677 32.2628 31.4661C31.1028 31.4645 29.9428 31.4633 28.7828 31.4626C28.7113 31.4625 28.6398 31.4625 28.5661 31.4624C28.2074 31.4622 27.8487 31.462 27.4899 31.4618C24.5141 31.46 21.5383 31.4569 18.5625 31.4531C18.5625 30.0352 18.5625 28.6172 18.5625 27.1562Z" fill="url(#paint1_linear_262_1187)"/>
<path d="M5.07031 20.8828C9.2675 20.8828 13.4647 20.8828 17.7891 20.8828C17.7891 24.8815 17.7891 28.8802 17.7891 33C15.3218 33 12.8545 33 10.3125 33C10.3103 32.308 10.3081 31.6159 10.3058 30.9029C10.3036 30.4639 10.3014 30.0249 10.2987 29.5858C10.2946 28.8893 10.2907 28.1929 10.2892 27.4964C10.288 26.9347 10.2849 26.373 10.2808 25.8114C10.2796 25.5973 10.2789 25.3833 10.2788 25.1693C10.2786 24.8689 10.2763 24.5686 10.2735 24.2683C10.2739 24.1803 10.2743 24.0923 10.2748 24.0016C10.2654 23.3548 10.1347 22.8211 9.71698 22.3145C9.63423 22.2466 9.63423 22.2466 9.5498 22.1772C9.46772 22.107 9.46772 22.107 9.38397 22.0352C8.89523 21.7213 8.40148 21.7139 7.83978 21.7066C7.72071 21.7041 7.72071 21.7041 7.59922 21.7016C7.34708 21.6964 7.09494 21.6924 6.84277 21.6885C6.67123 21.6852 6.49969 21.6818 6.32816 21.6784C5.90889 21.6702 5.48961 21.6629 5.07031 21.6562C5.07031 21.401 5.07031 21.1458 5.07031 20.8828Z" fill="url(#paint2_linear_262_1187)"/>
<path d="M0 24.8359C3.14789 24.8359 6.29578 24.8359 9.53906 24.8359C9.53906 27.7002 9.53906 30.5645 9.53906 33.5156C6.39117 33.5156 3.24328 33.5156 0 33.5156C0 30.6513 0 27.787 0 24.8359Z" fill="url(#paint3_linear_262_1187)"/>
<path d="M21.6562 32.3125C25.1161 32.3125 28.5759 32.3125 32.1406 32.3125C32.1406 33.22 32.1406 34.1275 32.1406 35.0625C32.9248 35.0557 32.9248 35.0557 33.7089 35.047C33.8062 35.0466 33.9035 35.0462 34.0037 35.0457C34.1036 35.0448 34.2035 35.0439 34.3065 35.043C34.5469 35.0625 34.5469 35.0625 34.7188 35.2344C34.7402 35.4922 34.7402 35.4922 34.7188 35.75C34.4701 35.9987 34.2918 35.9437 33.9434 35.9443C33.8491 35.9448 33.8491 35.9448 33.7529 35.9453C33.5413 35.9462 33.3297 35.9458 33.118 35.9455C32.9667 35.9459 32.8154 35.9463 32.6641 35.9468C32.2524 35.948 31.8406 35.948 31.4289 35.9478C31.0857 35.9477 30.7424 35.9481 30.3992 35.9485C29.5898 35.9495 28.7805 35.9495 27.9711 35.949C27.1349 35.9485 26.2987 35.9495 25.4625 35.9514C24.7456 35.9529 24.0286 35.9534 23.3117 35.9531C22.8831 35.953 22.4545 35.9532 22.0258 35.9544C21.6229 35.9555 21.22 35.9553 20.8171 35.9542C20.6689 35.954 20.5207 35.9542 20.3725 35.9549C20.1708 35.9558 19.9692 35.9551 19.7676 35.954C19.6545 35.954 19.5415 35.9541 19.425 35.9541C19.2958 35.9381 19.2958 35.9381 19.1641 35.9219C18.9922 35.6641 18.9922 35.6641 19.019 35.3955C19.0781 35.1484 19.0781 35.1484 19.1641 35.0625C19.3484 35.055 19.5331 35.0533 19.7176 35.0541C19.8186 35.0543 19.9196 35.0545 20.0236 35.0548C20.153 35.0555 20.2823 35.0563 20.4155 35.0571C20.825 35.0589 21.2344 35.0607 21.6562 35.0625C21.6562 34.155 21.6562 33.2475 21.6562 32.3125Z" fill="url(#paint4_linear_262_1187)"/>
<path d="M6.6119 17.8618C6.74327 17.8607 6.74327 17.8607 6.87729 17.8595C6.97332 17.8592 7.06935 17.8588 7.16829 17.8584C7.26948 17.8577 7.37068 17.857 7.47494 17.8563C7.81061 17.8542 8.14629 17.8527 8.48196 17.8515C8.5977 17.851 8.71343 17.8506 8.82916 17.8501C9.31078 17.8483 9.79241 17.8467 10.274 17.8457C10.9633 17.8443 11.6524 17.8414 12.3416 17.8365C12.8268 17.8332 13.3119 17.8315 13.797 17.8311C14.0865 17.8308 14.3759 17.8297 14.6654 17.8269C14.9888 17.8242 15.3121 17.8242 15.6355 17.8249C15.7306 17.8234 15.8258 17.822 15.9238 17.8206C16.5078 17.8253 16.9131 17.9131 17.3594 18.3047C17.8232 18.8875 17.7891 19.2474 17.7891 20.0234C13.5919 20.0234 9.39469 20.0234 5.07031 20.0234C5.07031 18.7505 5.07031 18.7505 5.54263 18.256C5.89108 17.951 6.15951 17.8646 6.6119 17.8618Z" fill="url(#paint5_linear_262_1187)"/>
<path d="M10.3125 33.7734C12.7798 33.7734 15.247 33.7734 17.7891 33.7734C17.7891 35.0406 17.7891 35.0406 17.3893 35.4744C16.9455 35.8694 16.6075 35.9345 16.0194 35.9316C15.92 35.9317 15.92 35.9317 15.8186 35.9317C15.5996 35.9316 15.3806 35.9309 15.1616 35.9303C15.0097 35.9301 14.8579 35.93 14.7061 35.9299C14.3064 35.9296 13.9067 35.9287 13.507 35.9278C13.0992 35.9269 12.6914 35.9265 12.2835 35.9261C11.4833 35.9251 10.683 35.9237 9.88281 35.9219C9.90663 35.8748 9.93045 35.8277 9.95499 35.7792C10.2867 35.0532 10.2534 34.6592 10.3125 33.7734Z" fill="url(#paint6_linear_262_1187)"/>
<path d="M-3.83742e-05 34.2891C3.14785 34.2891 6.29574 34.2891 9.53902 34.2891C9.53902 34.9542 9.52656 35.2085 9.10934 35.6909C8.75977 35.9859 8.36621 35.9357 7.93279 35.9371C7.85647 35.9377 7.78015 35.9382 7.70151 35.9388C7.44871 35.9405 7.19591 35.9415 6.94311 35.9424C6.85676 35.9427 6.77041 35.9431 6.68145 35.9434C6.2245 35.9452 5.76756 35.9464 5.31061 35.9472C4.8387 35.9482 4.36683 35.9511 3.89493 35.9546C3.53199 35.9568 3.16905 35.9575 2.8061 35.9578C2.63214 35.9583 2.45819 35.9593 2.28424 35.9608C2.04067 35.9629 1.79719 35.9629 1.55361 35.9623C1.44611 35.9639 1.44611 35.9639 1.33643 35.9656C0.878718 35.9615 0.622567 35.8791 0.257774 35.5781C-0.116183 35.1543 -3.83742e-05 34.9319 -3.83742e-05 34.2891Z" fill="url(#paint7_linear_262_1187)"/>
<path d="M1.58859 22.4145C1.70179 22.4136 1.70179 22.4136 1.81729 22.4128C2.06777 22.4111 2.31824 22.4101 2.56873 22.4092C2.6542 22.4089 2.73968 22.4085 2.82775 22.4081C3.28024 22.4063 3.73272 22.4051 4.18522 22.4043C4.6526 22.4034 5.11995 22.4004 5.58732 22.397C5.94665 22.3947 6.30598 22.394 6.66532 22.3937C6.83759 22.3933 7.00987 22.3923 7.18213 22.3907C7.42345 22.3886 7.66468 22.3887 7.906 22.3893C7.977 22.3882 8.048 22.3871 8.12116 22.386C8.57703 22.3901 8.83179 22.4742 9.19531 22.7734C9.57254 23.2027 9.53906 23.4575 9.53906 24.0625C6.39117 24.0625 3.24328 24.0625 0 24.0625C0 23.1705 0 23.1705 0.257813 22.8594C0.714316 22.4585 0.994189 22.4164 1.58859 22.4145Z" fill="url(#paint8_linear_262_1187)"/>
</g>
<defs>
<linearGradient id="paint0_linear_262_1187" x1="9.66919" y1="17.2084" x2="44.0318" y2="17.2084" gradientUnits="userSpaceOnUse">
<stop stop-color="#E58FFF"/>
<stop offset="1" stop-color="white"/>
</linearGradient>
<linearGradient id="paint1_linear_262_1187" x1="18.5625" y1="29.3158" x2="44" y2="29.3158" gradientUnits="userSpaceOnUse">
<stop stop-color="#E58FFF"/>
<stop offset="1" stop-color="white"/>
</linearGradient>
<linearGradient id="paint2_linear_262_1187" x1="5.07031" y1="26.9414" x2="17.7891" y2="26.9414" gradientUnits="userSpaceOnUse">
<stop stop-color="#E58FFF"/>
<stop offset="1" stop-color="white"/>
</linearGradient>
<linearGradient id="paint3_linear_262_1187" x1="0" y1="29.1758" x2="9.53906" y2="29.1758" gradientUnits="userSpaceOnUse">
<stop stop-color="#E58FFF"/>
<stop offset="1" stop-color="white"/>
</linearGradient>
<linearGradient id="paint4_linear_262_1187" x1="19.006" y1="34.1339" x2="34.7349" y2="34.1339" gradientUnits="userSpaceOnUse">
<stop stop-color="#E58FFF"/>
<stop offset="1" stop-color="white"/>
</linearGradient>
<linearGradient id="paint5_linear_262_1187" x1="5.07031" y1="18.922" x2="17.7896" y2="18.922" gradientUnits="userSpaceOnUse">
<stop stop-color="#E58FFF"/>
<stop offset="1" stop-color="white"/>
</linearGradient>
<linearGradient id="paint6_linear_262_1187" x1="9.88281" y1="34.8526" x2="17.7891" y2="34.8526" gradientUnits="userSpaceOnUse">
<stop stop-color="#E58FFF"/>
<stop offset="1" stop-color="white"/>
</linearGradient>
<linearGradient id="paint7_linear_262_1187" x1="-0.0170898" y1="35.1273" x2="9.53902" y2="35.1273" gradientUnits="userSpaceOnUse">
<stop stop-color="#E58FFF"/>
<stop offset="1" stop-color="white"/>
</linearGradient>
<linearGradient id="paint8_linear_262_1187" x1="0" y1="23.2242" x2="9.53982" y2="23.2242" gradientUnits="userSpaceOnUse">
<stop stop-color="#E58FFF"/>
<stop offset="1" stop-color="white"/>
</linearGradient>
<clipPath id="clip0_262_1187">
<rect width="44" height="44" fill="white"/>
</clipPath>
</defs>
</svg>
