<svg width="40" height="40" viewBox="0 0 40 40" fill="none" xmlns="http://www.w3.org/2000/svg">
<path d="M26.0602 0.847877C26.1488 0.847318 26.2374 0.846759 26.3287 0.846183C26.4255 0.845973 26.5224 0.845763 26.6222 0.845547C26.7245 0.845033 26.8268 0.84452 26.9322 0.843991C27.2713 0.84235 27.6105 0.841538 27.9496 0.840759C28.0666 0.840443 28.1836 0.840121 28.3007 0.839794C28.8508 0.838306 29.401 0.837195 29.9512 0.836543C30.5847 0.835781 31.2181 0.833728 31.8516 0.830567C32.3422 0.828204 32.8328 0.827053 33.3234 0.826795C33.616 0.826612 33.9085 0.825921 34.201 0.823946C34.4767 0.822115 34.7524 0.821802 35.028 0.8226C35.1761 0.822656 35.3242 0.821173 35.4723 0.819626C36.4556 0.825544 37.3398 1.14949 38.0793 1.80878C38.6737 2.42206 39.1492 3.23725 39.1512 4.1106C39.1515 4.18308 39.1519 4.25556 39.1522 4.33024C39.1522 4.44928 39.1522 4.44929 39.1522 4.57073C39.1525 4.65526 39.1527 4.73978 39.153 4.82686C39.1539 5.11107 39.1542 5.39528 39.1545 5.67949C39.155 5.88288 39.1555 6.08627 39.1561 6.28966C39.1576 6.90075 39.1584 7.51185 39.1591 8.12294C39.1594 8.41091 39.1598 8.69887 39.1603 8.98684C39.1616 9.94448 39.1627 10.9021 39.1633 11.8598C39.1634 12.1082 39.1636 12.3566 39.1637 12.6051C39.1638 12.6668 39.1638 12.7286 39.1639 12.7922C39.1645 13.7919 39.1665 14.7916 39.169 15.7913C39.1716 16.8183 39.173 17.8453 39.1733 18.8723C39.1734 19.4486 39.1741 20.025 39.1761 20.6013C39.178 21.1438 39.1783 21.6862 39.1775 22.2286C39.1774 22.4274 39.1779 22.6262 39.179 22.8251C39.1804 23.0971 39.1798 23.369 39.1788 23.6411C39.1801 23.7583 39.1801 23.7583 39.1814 23.8779C39.173 24.8014 38.8056 25.6715 38.1913 26.3605C37.5454 26.9865 36.7253 27.4294 35.8149 27.4334C35.682 27.4342 35.682 27.4342 35.5464 27.4351C35.4011 27.4354 35.4011 27.4354 35.2529 27.4357C35.1506 27.4362 35.0483 27.4367 34.9429 27.4373C34.6038 27.4389 34.2646 27.4397 33.9255 27.4405C33.8085 27.4408 33.6915 27.4411 33.5744 27.4415C33.0243 27.4429 32.4741 27.4441 31.9239 27.4447C31.2904 27.4455 30.657 27.4475 30.0235 27.4507C29.5329 27.453 29.0423 27.4542 28.5517 27.4545C28.2591 27.4546 27.9666 27.4553 27.6741 27.4573C27.3984 27.4591 27.1227 27.4594 26.8471 27.4586C26.699 27.4586 26.5509 27.4601 26.4028 27.4616C25.4195 27.4557 24.5353 27.1318 23.7958 26.4725C23.197 25.8546 22.7241 25.0375 22.725 24.1585C22.7249 24.0465 22.7249 24.0465 22.7247 23.9321C22.725 23.8507 22.7253 23.7693 22.7256 23.6854C22.7255 23.5992 22.7255 23.5131 22.7255 23.4243C22.7256 23.1394 22.7262 22.8545 22.7268 22.5696C22.7269 22.3721 22.7271 22.1746 22.7271 21.9771C22.7274 21.5104 22.728 21.0436 22.7288 20.5769C22.7297 20.0454 22.7301 19.5139 22.7305 18.9824C22.7313 17.8893 22.7327 16.7962 22.7344 15.7031C22.5336 15.737 22.3331 15.7718 22.1326 15.8072C22.0479 15.8213 22.0479 15.8213 21.9614 15.8357C21.5072 15.9172 21.1664 16.0459 20.8594 16.4062C20.4803 16.9666 20.4573 17.5492 20.4577 18.2065C20.4574 18.2761 20.4572 18.3456 20.4569 18.4173C20.4563 18.5678 20.4559 18.7183 20.4556 18.8689C20.4551 19.1077 20.4538 19.3466 20.4524 19.5854C20.4483 20.2644 20.4446 20.9434 20.4433 21.6223C20.4425 22.0383 20.4402 22.4542 20.437 22.8701C20.436 23.0279 20.4356 23.1857 20.4358 23.3435C20.4368 24.5718 20.3229 25.5575 19.4532 26.4969C18.9302 26.9965 18.3668 27.3204 17.6413 27.3873C17.571 27.3939 17.5006 27.4005 17.4282 27.4073C17.3745 27.4121 17.3209 27.4169 17.2657 27.4219C17.266 27.4666 17.2663 27.5113 17.2666 27.5573C17.2735 28.6484 17.2786 29.7394 17.2819 30.8305C17.2835 31.3581 17.2857 31.8858 17.2893 32.4134C17.2927 32.923 17.2945 33.4326 17.2953 33.9422C17.2959 34.1362 17.297 34.3302 17.2987 34.5242C17.301 34.7968 17.3013 35.0694 17.3012 35.342C17.3023 35.4215 17.3034 35.501 17.3046 35.5828C17.2993 36.5132 16.9355 37.3847 16.3163 38.0792C15.6704 38.7052 14.8503 39.1482 13.9399 39.1521C13.807 39.153 13.807 39.153 13.6714 39.1538C13.5261 39.1541 13.5261 39.1541 13.3779 39.1545C13.2244 39.1552 13.2244 39.1552 13.0679 39.156C12.7288 39.1576 12.3896 39.1585 12.0505 39.1592C11.9335 39.1596 11.8165 39.1599 11.6994 39.1602C11.1493 39.1617 10.5991 39.1628 10.0489 39.1635C9.41544 39.1642 8.78195 39.1663 8.14846 39.1694C7.65786 39.1718 7.16727 39.173 6.67667 39.1732C6.38413 39.1734 6.09161 39.1741 5.79907 39.1761C5.52339 39.1779 5.24774 39.1782 4.97205 39.1774C4.82396 39.1773 4.67587 39.1788 4.52778 39.1804C3.54446 39.1745 2.66028 38.8505 1.92083 38.1912C1.32643 37.5779 0.850892 36.7627 0.84894 35.8894C0.848592 35.8169 0.848245 35.7444 0.847887 35.6698C0.847901 35.5904 0.847915 35.511 0.847929 35.4293C0.847642 35.3447 0.847355 35.2602 0.847059 35.1731C0.846196 34.8889 0.845898 34.6047 0.8456 34.3205C0.845111 34.1171 0.84459 33.9137 0.844043 33.7103C0.8425 33.0992 0.841713 32.4882 0.841018 31.8771C0.840675 31.5891 0.840256 31.3011 0.839847 31.0132C0.838518 30.0555 0.837385 29.0979 0.836819 28.1402C0.83667 27.8918 0.836521 27.6434 0.836369 27.3949C0.836312 27.3023 0.83631 27.3023 0.836252 27.2078C0.835604 26.2081 0.833626 25.2084 0.831088 24.2087C0.828501 23.1817 0.827096 22.1547 0.826846 21.1277C0.826677 20.5514 0.825999 19.975 0.823999 19.3987C0.822122 18.8562 0.82185 18.3138 0.822652 17.7714C0.822691 17.5726 0.822197 17.3738 0.821124 17.1749C0.819739 16.9029 0.820296 16.631 0.821322 16.3589C0.820465 16.2808 0.819609 16.2026 0.818726 16.1221C0.827103 15.1986 1.19451 14.3285 1.80883 13.6395C2.45471 13.0135 3.27478 12.5706 4.18521 12.5666C4.2738 12.5661 4.36239 12.5655 4.45366 12.5649C4.55054 12.5647 4.64742 12.5645 4.74723 12.5643C4.84953 12.5638 4.95183 12.5633 5.05722 12.5627C5.39634 12.5611 5.73546 12.5603 6.07458 12.5595C6.19161 12.5592 6.30864 12.5589 6.42567 12.5585C6.97584 12.5571 7.526 12.5559 8.07616 12.5553C8.70967 12.5545 9.34315 12.5525 9.97665 12.5493C10.4672 12.547 10.9578 12.5458 11.4484 12.5455C11.741 12.5454 12.0335 12.5447 12.326 12.5427C12.6017 12.5409 12.8774 12.5406 13.1531 12.5414C13.3011 12.5414 13.4492 12.5399 13.5973 12.5384C14.5806 12.5443 15.4648 12.8682 16.2043 13.5275C16.8269 14.1699 17.2759 14.9908 17.2751 15.8978C17.2752 16.0286 17.2752 16.0286 17.2754 16.1621C17.2751 16.2574 17.2748 16.3527 17.2745 16.4509C17.2746 16.5515 17.2746 16.6521 17.2746 16.7558C17.2746 17.0315 17.2741 17.3072 17.2736 17.5828C17.2731 17.871 17.2731 18.1592 17.273 18.4474C17.2727 18.993 17.2721 19.5386 17.2713 20.0843C17.2704 20.7055 17.27 21.3267 17.2696 21.9479C17.2688 23.2257 17.2674 24.5035 17.2657 25.7812C17.3784 25.7322 17.491 25.6829 17.6035 25.6335C17.6662 25.6061 17.7289 25.5787 17.7935 25.5505C18.2157 25.3536 18.409 25.109 18.6097 24.7028C18.7687 24.2646 18.7614 23.8155 18.7611 23.356C18.7614 23.2864 18.7617 23.2169 18.762 23.1452C18.7625 22.9947 18.7629 22.8442 18.7632 22.6936C18.7638 22.4548 18.765 22.2159 18.7665 21.9771C18.7705 21.2981 18.7743 20.6191 18.7755 19.9402C18.7763 19.5242 18.7786 19.1083 18.7819 18.6924C18.7828 18.5346 18.7832 18.3768 18.7831 18.219C18.782 16.9907 18.8959 16.005 19.7657 15.0656C20.4474 14.4143 21.1978 14.125 22.129 14.1357C22.1872 14.1361 22.2454 14.1364 22.3054 14.1368C22.4484 14.1377 22.5914 14.1391 22.7344 14.1406C22.7341 14.0879 22.7339 14.0351 22.7336 13.9808C22.7266 12.6941 22.7215 11.4075 22.7182 10.1208C22.7166 9.49862 22.7144 8.8764 22.7109 8.25418C22.7077 7.71155 22.7057 7.16892 22.705 6.62628C22.7046 6.33923 22.7037 6.0522 22.7014 5.76516C22.6988 5.44389 22.6988 5.12267 22.699 4.80139C22.6978 4.70732 22.6967 4.61325 22.6955 4.51633C22.7003 3.53828 23.0286 2.6557 23.6838 1.92078C24.3297 1.29478 25.1498 0.851827 26.0602 0.847877ZM24.2969 7.10938C24.2969 9.42969 24.2969 11.75 24.2969 14.1406C26.2047 14.1406 28.1126 14.1406 30.0782 14.1406C30.0008 14.0117 29.9235 13.8828 29.8438 13.75C29.8182 13.5492 29.8182 13.5492 29.8243 13.3496C29.8255 13.2833 29.8267 13.2171 29.8279 13.1488C29.8438 12.9688 29.8438 12.9688 29.9219 12.7344C30.273 12.6174 30.5724 12.5781 30.9376 12.6562C31.2388 12.8507 31.472 13.101 31.7188 13.3594C31.8025 13.4421 31.8866 13.5245 31.9709 13.6066C32.8348 14.4523 32.8348 14.4523 32.8663 14.8877C32.8525 15.4489 32.4948 15.7257 32.1094 16.0938C32.0267 16.1775 31.9443 16.2615 31.8622 16.3458C31.0488 17.1767 31.0488 17.1767 30.752 17.2055C30.6843 17.2044 30.6167 17.2033 30.5469 17.2021C30.4793 17.2016 30.4116 17.2011 30.3419 17.2006C30.1563 17.1875 30.1563 17.1875 29.9219 17.1094C29.8471 16.8849 29.8285 16.7282 29.8243 16.4941C29.8223 16.4283 29.8202 16.3624 29.8182 16.2946C29.8438 16.0938 29.8438 16.0938 30.0782 15.7031C28.1704 15.7031 26.2626 15.7031 24.2969 15.7031C24.2969 17.5078 24.2969 19.3125 24.2969 21.1719C28.6797 21.1719 33.0626 21.1719 37.5782 21.1719C37.5782 16.5312 37.5782 11.8906 37.5782 7.10938C33.1954 7.10938 28.8126 7.10938 24.2969 7.10938ZM2.42193 18.8281C2.42193 23.4688 2.42193 28.1094 2.42193 32.8906C6.80474 32.8906 11.1876 32.8906 15.7032 32.8906C15.7032 31.0859 15.7032 29.2812 15.7032 27.4219C14.3883 27.4219 13.0735 27.4219 11.7188 27.4219C11.6157 27.6797 11.5126 27.9375 11.4063 28.2031C11.0154 28.8751 10.3494 29.4383 9.59417 29.6533C8.56723 29.8135 7.60415 29.7443 6.73833 29.1309C6.148 28.6357 5.68085 27.9696 5.61132 27.1897C5.54872 26.1787 5.65213 25.3384 6.32452 24.5367C7.00938 23.844 7.70791 23.5744 8.66216 23.5596C9.56694 23.5662 10.2838 23.8055 10.9376 24.4531C11.3178 24.9066 11.507 25.2944 11.7188 25.8594C13.0336 25.8594 14.3485 25.8594 15.7032 25.8594C15.7032 23.5391 15.7032 21.2188 15.7032 18.8281C11.3204 18.8281 6.93755 18.8281 2.42193 18.8281Z" fill="url(#paint0_linear_262_1198)"/>
<defs>
<linearGradient id="paint0_linear_262_1198" x1="0.818726" y1="20" x2="39.1814" y2="20" gradientUnits="userSpaceOnUse">
<stop stop-color="#E58FFF"/>
<stop offset="1" stop-color="white"/>
</linearGradient>
</defs>
</svg>
